<?xml version="1.0" encoding="UTF-8"?>
<svg id="Layer_2" data-name="Layer 2" xmlns="http://www.w3.org/2000/svg" viewBox="0 0 332.11 178.56">
  <defs>
    <style>
      .cls-1 {
        fill: #ff6f0d;
      }
    </style>
  </defs>
  <g id="content">
    <g>
      <path class="cls-1" d="M.29,18.22l2.04-2.45c1.27,1.18,2.95,1.97,4.51,1.97,1.85,0,2.83-.79,2.83-2.04,0-1.32-1.08-1.73-2.66-2.4l-2.38-1.01c-1.8-.74-3.6-2.18-3.6-4.78,0-2.9,2.54-5.14,6.14-5.14,2.06,0,4.13.82,5.57,2.28l-1.8,2.23c-1.13-.94-2.3-1.46-3.77-1.46-1.56,0-2.57.7-2.57,1.87,0,1.27,1.27,1.73,2.78,2.33l2.33.98c2.16.89,3.58,2.26,3.58,4.82,0,2.9-2.42,5.38-6.53,5.38-2.38,0-4.75-.94-6.48-2.59Z"/>
      <path class="cls-1" d="M16.34,12.48V2.71h3.55v10.08c0,3.7,1.27,4.94,3.36,4.94s3.46-1.25,3.46-4.94V2.71h3.41v9.77c0,5.9-2.52,8.33-6.86,8.33s-6.91-2.42-6.91-8.33Z"/>
      <path class="cls-1" d="M34.39,2.71h5.83c3.94,0,6.96,1.37,6.96,5.57s-3.05,5.88-6.86,5.88h-2.38v6.31h-3.55V2.71ZM40.08,11.35c2.45,0,3.62-1.03,3.62-3.07s-1.3-2.76-3.74-2.76h-2.02v5.83h2.14Z"/>
      <path class="cls-1" d="M50.4,2.71h10.9v2.95h-7.34v4.1h6.24v2.98h-6.24v4.75h7.61v2.98h-11.16V2.71Z"/>
      <path class="cls-1" d="M74.83,20.47l-3.65-6.72h-2.47v6.72h-3.55V2.71h6.19c3.72,0,6.67,1.3,6.67,5.38,0,2.66-1.34,4.32-3.38,5.11l4.15,7.27h-3.96ZM68.71,10.94h2.3c2.28,0,3.53-.96,3.53-2.86s-1.25-2.57-3.53-2.57h-2.3v5.42Z"/>
      <path class="cls-1" d="M86.97,2.71h3.55v6.98h6.72V2.71h3.53v17.76h-3.53v-7.68h-6.72v7.68h-3.55V2.71Z"/>
      <path class="cls-1" d="M104.25,11.52c0-5.78,3.24-9.14,7.94-9.14s7.95,3.38,7.95,9.14-3.24,9.29-7.95,9.29-7.94-3.53-7.94-9.29ZM116.52,11.52c0-3.82-1.68-6.1-4.32-6.1s-4.32,2.28-4.32,6.1,1.68,6.22,4.32,6.22,4.32-2.42,4.32-6.22Z"/>
      <path class="cls-1" d="M127.15,5.67h-4.99v-2.95h13.58v2.95h-5.04v14.81h-3.55V5.67Z"/>
      <path class="cls-1" d="M138.62,2.71h10.9v2.95h-7.34v4.1h6.24v2.98h-6.24v4.75h7.61v2.98h-11.16V2.71Z"/>
      <path class="cls-1" d="M153.38,2.71h3.55v14.79h7.2v2.98h-10.75V2.71Z"/>
      <path class="cls-1" d="M175.41,1.61c-1.54,3.77-4.06,7.49-6.5,9.77-.58-.6-1.97-1.68-2.74-2.14,2.47-1.95,4.73-5.23,5.98-8.57l3.26.94ZM182.09,12.84c2.09,2.59,4.34,5.98,5.52,8.28l-2.98,1.56c-.24-.58-.58-1.22-.98-1.92-5.76.38-11.81.74-16.03.94l-.38-3,3.34-.12c1.54-2.86,3.19-6.7,4.1-9.7l3.43.79c-1.25,2.95-2.81,6.17-4.27,8.76,2.59-.12,5.4-.26,8.18-.41-.86-1.34-1.82-2.71-2.71-3.89l2.78-1.3ZM181.75.72c1.39,2.81,4.13,6.17,6.31,8.19-.74.6-1.85,1.7-2.4,2.5-2.26-2.42-5.02-6.22-6.77-9.51l2.86-1.18Z"/>
      <path class="cls-1" d="M205.29,7.01c.5,7.01,1.97,12.55,3.72,12.55.5,0,.79-1.27.91-4.32.65.67,1.7,1.39,2.5,1.68-.43,4.54-1.39,5.64-3.67,5.64-4.1,0-5.9-7.1-6.48-15.55h-11.93v-2.79h11.79c-.05-1.29-.07-2.64-.07-3.96h3.07c-.02,1.32-.02,2.67.02,3.96h3.79c-.65-.82-1.85-1.8-2.81-2.52l1.9-1.56c1.08.74,2.5,1.87,3.14,2.66l-1.63,1.42h2.26v2.79h-6.5ZM197.71,17.79c1.46-.26,3-.55,4.46-.84l.22,2.54c-3.94.86-8.16,1.75-11.26,2.4l-.79-2.88c1.22-.19,2.81-.43,4.54-.72v-5.79h-3.62v-2.76h10.3v2.76h-3.84v5.28Z"/>
      <path class="cls-1" d="M235.97,4.22c-.26.31-.72.89-.94,1.25-1.13,1.87-3.41,4.9-5.78,6.58l-2.47-1.99c1.92-1.18,3.79-3.29,4.42-4.46h-12.5c-1.01,0-1.8.07-2.93.17v-3.34c.91.14,1.92.24,2.93.24h12.94c.67,0,1.99-.07,2.42-.22l1.92,1.78ZM226.17,7.46c0,5.95-.12,10.85-6.67,14.35l-2.78-2.28c.77-.26,1.63-.67,2.52-1.32,3.05-2.11,3.62-4.66,3.62-8.59,0-.74-.05-1.39-.17-2.16h3.48Z"/>
      <path class="cls-1" d="M253.51,3.43c.34,0,.84-.02,1.37-.1-.02-.14-.05-.29-.05-.46,0-1.58,1.3-2.88,2.88-2.88s2.86,1.3,2.86,2.88-1.3,2.86-2.86,2.86c-.1,0-.22,0-.31-.02l-.19.72c-.55,2.35-1.58,6.07-3.6,8.74-2.16,2.88-5.35,5.26-9.65,6.62l-2.62-2.86c4.78-1.13,7.46-3.19,9.41-5.64,1.58-1.99,2.5-4.7,2.83-6.77h-11.18c-1.1,0-2.23.05-2.86.1v-3.38c.7.1,2.06.19,2.86.19h11.11ZM259.08,2.88c0-.77-.62-1.39-1.37-1.39s-1.39.62-1.39,1.39.62,1.37,1.39,1.37,1.37-.62,1.37-1.37Z"/>
      <path class="cls-1" d="M269.25,2.06c-.05.53-.07,1.06-.07,1.82v8.11c0,.6.02,1.54.07,2.09h-3.55c.02-.46.12-1.39.12-2.11V3.89c0-.46-.02-1.29-.1-1.82h3.53ZM280.32,1.85c-.05.67-.1,1.44-.1,2.4v4.75c0,5.16-1.01,7.37-2.78,9.34-1.58,1.75-4.08,2.93-5.83,3.48l-2.52-2.64c2.4-.55,4.42-1.46,5.88-3.02,1.63-1.8,1.94-3.6,1.94-7.34v-4.56c0-.96-.05-1.73-.14-2.4h3.55Z"/>
      <path class="cls-1" d="M289.12,3.94c1.99-.17,5.93-.53,10.27-.91,2.45-.19,5.04-.34,6.72-.41l.02,3.07c-1.27,0-3.31.02-4.58.31-2.88.77-5.02,3.84-5.02,6.65,0,3.91,3.65,5.33,7.68,5.52l-1.1,3.29c-4.99-.31-9.7-3-9.7-8.16,0-3.43,1.9-6.12,3.5-7.32-2.06.22-7.06.74-9.82,1.34l-.31-3.26c.96-.02,1.87-.07,2.33-.12ZM304.73,11.26l-1.82.82c-.6-1.32-1.1-2.26-1.87-3.34l1.78-.74c.58.86,1.46,2.3,1.92,3.26ZM307.51,10.08l-1.8.86c-.65-1.29-1.2-2.18-1.97-3.24l1.75-.82c.6.84,1.51,2.26,2.02,3.19Z"/>
      <path class="cls-1" d="M315.91,2.02c-.19.48-.48,1.68-.58,2.11-.36,1.58-1.13,6.82-1.13,9.19,0,.48.02,1.06.1,1.54.31-.84.7-1.63,1.06-2.42l1.46,1.18c-.67,1.95-1.44,4.37-1.7,5.67-.07.34-.14.84-.12,1.1,0,.24,0,.65.02.98l-2.69.19c-.48-1.66-.94-4.37-.94-7.58,0-3.6.7-8.09.98-9.91.1-.67.22-1.58.22-2.33l3.31.29ZM330.5,19.95c-.98-.94-1.94-1.73-2.88-2.38-.14,2.26-1.44,3.89-4.66,3.89s-5.33-1.39-5.33-3.89,2.04-4.08,5.28-4.08c.55,0,1.08.02,1.56.1-.07-1.46-.14-3.19-.17-4.87-.58.03-1.15.03-1.7.03-1.39,0-2.74-.05-4.15-.14v-2.83c1.37.14,2.74.22,4.15.22.55,0,1.13,0,1.68-.02-.02-1.18-.02-2.14-.05-2.64,0-.36-.07-1.08-.14-1.56h3.41c-.07.46-.12,1.03-.14,1.54-.02.53-.07,1.42-.07,2.47,1.3-.14,2.54-.31,3.67-.55v2.95c-1.15.17-2.4.31-3.7.41.05,2.3.17,4.2.26,5.81,1.99.82,3.48,2.04,4.58,3.07l-1.61,2.5ZM324.6,16.08c-.62-.17-1.27-.26-1.92-.26-1.34,0-2.26.55-2.26,1.44,0,.96.96,1.39,2.21,1.39,1.46,0,1.97-.77,1.97-2.16v-.41Z"/>
      <path class="cls-1" d="M3.74,45.5c-.48.46-.94.89-1.42,1.25-.53-.5-1.68-1.42-2.33-1.87,2.02-1.32,3.91-3.5,4.97-5.74l2.78.82c-.26.58-.58,1.13-.94,1.68h14.4v2.52h-2.26v3.07h3.12v2.54h-3.12v3.05h2.78v2.54H.89v-2.54h2.86v-3.05H.53v-2.54h3.22v-1.73ZM.29,60.48c1.06-1.01,2.14-2.86,2.69-4.61l2.76.67c-.53,1.82-1.56,3.79-2.74,5.04l-2.71-1.1ZM6.26,47.23h1.73v-3.07h-1.73v3.07ZM6.26,52.83h1.73v-3.05h-1.73v3.05ZM9.94,56.4c.29,1.46.55,3.36.58,4.49l-2.78.41c0-1.15-.19-3.12-.46-4.58l2.66-.31ZM12.15,47.23v-3.07h-1.78v3.07h1.78ZM10.37,49.78v3.05h1.78v-3.05h-1.78ZM14.71,56.31c.58,1.42,1.18,3.29,1.39,4.46l-2.86.55c-.14-1.15-.7-3.1-1.22-4.56l2.69-.46ZM16.35,44.16h-1.82v3.07h1.82v-3.07ZM16.35,49.78h-1.82v3.05h1.82v-3.05ZM19.51,55.78c1.08,1.46,2.42,3.48,3.02,4.8l-2.93.98c-.5-1.27-1.78-3.38-2.83-4.92l2.74-.86Z"/>
      <path class="cls-1" d="M32.23,56.19c-.36-.77-1.03-2.02-1.73-3.12v8.42h-2.64v-8.47c-.77,2.23-1.73,4.46-2.76,5.9-.24-.86-.86-2.16-1.3-2.95,1.2-1.46,2.42-4.03,3.17-6.22h-2.74v-2.66h3.62v-7.85h2.64v7.85h3.55v2.66h-3.55v.17c.7.7,2.98,3.38,3.48,4.06l-1.75,2.21ZM25.3,46.63c-.05-1.46-.53-3.79-1.08-5.52l1.99-.53c.62,1.73,1.1,4.01,1.22,5.5l-2.14.55ZM34.49,40.99c-.62,1.92-1.32,4.2-1.92,5.59l-1.8-.5c.5-1.51,1.06-3.94,1.32-5.62l2.4.53ZM43.8,55.06v6.48h-2.69v-6l-6.7,1.2-.43-2.66,7.13-1.27v-13.68h2.69v13.2l2.45-.46.43,2.67-2.88.53ZM35.59,46.34c1.39.74,3.17,1.92,4.03,2.76l-1.44,2.28c-.79-.86-2.54-2.16-3.94-2.98l1.34-2.06ZM39.07,45.48c-.74-.94-2.4-2.23-3.72-3.12l1.37-1.92c1.34.79,3.05,2.02,3.82,2.9l-1.46,2.14Z"/>
      <path class="cls-1" d="M56.11,45.1c-.58,1.22-1.27,2.47-2.06,3.65v12.82h-2.69v-9.43c-.65.7-1.32,1.32-1.99,1.85-.29-.6-1.1-2.04-1.63-2.69,2.28-1.63,4.46-4.32,5.71-7.1l2.67.91ZM51.84,45.6h-2.78v-4.58h8.74v-1.85h2.93v1.85h8.83v4.25h-2.93v-1.68h-14.79v2.02ZM64.2,48.24l-.65,1.78h5.3v11.57h-2.83v-.82h-6.58v.84h-2.71v-11.59h3.89c.12-.58.26-1.18.38-1.78h-5.11v-2.5h13.83v2.5h-5.52ZM66.03,52.42h-6.58v1.73h6.58v-1.73ZM66.03,58.35v-1.9h-6.58v1.9h6.58Z"/>
      <path class="cls-1" d="M76.46,50.74c-.91-.84-2.78-1.95-4.3-2.62l1.56-2.09c1.44.58,3.38,1.56,4.34,2.38l-1.61,2.33ZM73.06,59.35c1.1-1.82,2.69-4.8,3.91-7.56l2.18,1.75c-1.06,2.52-2.38,5.26-3.62,7.56l-2.47-1.75ZM75.19,39.46c1.46.58,3.41,1.63,4.34,2.5l-1.7,2.26c-.89-.86-2.74-2.02-4.25-2.69l1.61-2.06ZM93.31,43.37v18h-2.93v-.94h-7.51v1.13h-2.81v-18.19h4.03c.31-1.34.6-2.93.7-4.15l3.36.34c-.34,1.32-.74,2.64-1.13,3.82h6.29ZM82.87,46.1v4.34h7.51v-4.34h-7.51ZM90.39,57.67v-4.58h-7.51v4.58h7.51Z"/>
      <path class="cls-1" d="M114.03,50.09c1.27,1.39,2.81,2.5,4.56,3.24-.62.53-1.46,1.61-1.87,2.35-1.01-.5-1.94-1.1-2.81-1.8-.26,4.08-.6,5.93-1.25,6.65-.55.6-1.13.82-1.9.91-.7.1-1.87.1-3.12.05-.02-.82-.36-1.94-.84-2.66,1.08.07,2.06.1,2.54.1.41,0,.62-.05.86-.26.34-.34.58-1.46.77-3.98h-3.77c-.65,3.26-2.23,5.59-7.46,6.94-.26-.72-.98-1.87-1.58-2.45,4.2-.89,5.5-2.4,6.05-4.49h-3.58v-.89c-.89.7-1.87,1.32-2.95,1.87-.38-.67-1.2-1.78-1.75-2.33,1.8-.84,3.29-1.94,4.54-3.24h-3.94v-2.57h5.9c.38-.62.72-1.25,1.03-1.92h-5.38v-2.52h2.59c-.34-.86-.94-1.94-1.49-2.81l2.38-.87c.77,1.03,1.54,2.45,1.87,3.38l-.77.29h1.78c.43-1.3.74-2.64.98-3.98l3,.5c-.26,1.18-.58,2.35-.94,3.48h3.34l-.36-.12c.6-1.01,1.39-2.54,1.8-3.67l2.83.84c-.58,1.06-1.22,2.11-1.75,2.95h3.31v2.52h-5.54c.29.67.62,1.3.98,1.92h5.88v2.57h-3.96ZM112.08,52.1c-.55-.62-1.08-1.29-1.54-2.02h-6.41c-.5.72-1.03,1.39-1.63,2.02h9.58ZM106.58,45.6c-.26.65-.58,1.3-.89,1.92h3.41c-.29-.62-.55-1.25-.79-1.92h-1.73Z"/>
      <path class="cls-1" d="M125.42,41.71c.22.43.7,1.42.96,1.85.36.7.74,1.46,1.1,2.26,2.88-1.27,5.76-2.4,8.19-2.4,3.7,0,5.9,2.23,5.9,4.99,0,3.34-2.28,5.42-5.93,5.42-1.27,0-2.76-.34-3.65-.67l.07-2.98c1.06.46,2.26.79,3.26.79,1.82,0,3.1-.96,3.1-2.67,0-1.22-1.03-2.21-2.83-2.21s-4.44.98-6.98,2.16l.67,1.46c1.1,2.59,2.93,7.68,3.74,10.34l-3.29.84c-.74-2.98-1.97-7.03-3.19-9.86l-.62-1.46c-1.7.84-3.22,1.66-4.22,2.11l-1.39-3.05c.91-.22,1.97-.58,2.35-.77.7-.26,1.42-.58,2.14-.89-.36-.72-.7-1.39-1.06-2.02-.34-.6-.91-1.46-1.39-2.09l3.07-1.18ZM131.59,43.92c-.84-.84-2.16-2.14-3.1-2.83l2.18-1.54c.86.65,2.33,1.9,3.17,2.74l-2.26,1.63Z"/>
      <path class="cls-1" d="M144.29,57.22l2.04-2.45c1.27,1.18,2.95,1.97,4.51,1.97,1.85,0,2.83-.79,2.83-2.04,0-1.32-1.08-1.73-2.66-2.4l-2.38-1.01c-1.8-.74-3.6-2.18-3.6-4.78,0-2.9,2.54-5.14,6.14-5.14,2.06,0,4.13.82,5.57,2.28l-1.8,2.23c-1.13-.94-2.3-1.46-3.77-1.46-1.56,0-2.57.7-2.57,1.87,0,1.27,1.27,1.73,2.78,2.33l2.33.98c2.16.89,3.58,2.26,3.58,4.82,0,2.9-2.42,5.38-6.53,5.38-2.38,0-4.75-.94-6.48-2.59Z"/>
      <path class="cls-1" d="M160.34,51.48v-9.77h3.55v10.08c0,3.7,1.27,4.94,3.36,4.94s3.46-1.25,3.46-4.94v-10.08h3.41v9.77c0,5.9-2.52,8.33-6.86,8.33s-6.91-2.42-6.91-8.33Z"/>
      <path class="cls-1" d="M178.39,41.71h5.83c3.94,0,6.96,1.37,6.96,5.57s-3.05,5.88-6.86,5.88h-2.38v6.31h-3.55v-17.76ZM184.08,50.35c2.45,0,3.62-1.03,3.62-3.07s-1.3-2.76-3.74-2.76h-2.02v5.83h2.14Z"/>
      <path class="cls-1" d="M194.4,41.71h10.9v2.95h-7.34v4.1h6.24v2.98h-6.24v4.75h7.61v2.98h-11.16v-17.76Z"/>
      <path class="cls-1" d="M218.83,59.47l-3.65-6.72h-2.47v6.72h-3.55v-17.76h6.19c3.72,0,6.67,1.3,6.67,5.38,0,2.66-1.34,4.32-3.38,5.11l4.15,7.27h-3.96ZM212.71,49.94h2.3c2.28,0,3.53-.96,3.53-2.86s-1.25-2.57-3.53-2.57h-2.3v5.42Z"/>
      <path class="cls-1" d="M230.97,41.71h3.55v6.98h6.72v-6.98h3.53v17.76h-3.53v-7.68h-6.72v7.68h-3.55v-17.76Z"/>
      <path class="cls-1" d="M248.25,50.52c0-5.78,3.24-9.14,7.94-9.14s7.95,3.38,7.95,9.14-3.24,9.29-7.95,9.29-7.94-3.53-7.94-9.29ZM260.52,50.52c0-3.82-1.68-6.1-4.32-6.1s-4.32,2.28-4.32,6.1,1.68,6.22,4.32,6.22,4.32-2.42,4.32-6.22Z"/>
      <path class="cls-1" d="M271.15,44.67h-4.99v-2.95h13.58v2.95h-5.04v14.81h-3.55v-14.81Z"/>
      <path class="cls-1" d="M282.62,41.71h10.9v2.95h-7.34v4.1h6.24v2.98h-6.24v4.75h7.61v2.98h-11.16v-17.76Z"/>
      <path class="cls-1" d="M297.38,41.71h3.55v14.79h7.2v2.98h-10.75v-17.76Z"/>
      <path class="cls-1" d="M328.34,44.4c.79,0,1.92-.1,2.5-.19v3.19c-.77-.02-1.68-.07-2.33-.07h-3.1c.07,3.5.17,7.51.22,10.75.02,1.54-.86,2.42-2.69,2.42-1.46,0-2.81-.05-4.18-.14l-.26-3.12c1.08.19,2.38.29,3.19.29.6,0,.84-.31.84-1.01,0-1.61,0-4.01-.05-6.48-2.11,2.76-6,6.1-9.79,8.11l-2.21-2.5c4.66-2.21,8.62-5.59,10.56-8.33h-6.55c-.86,0-1.9.05-2.74.1v-3.19c.7.1,1.85.17,2.66.17h7.95c-.02-.62-.05-1.2-.07-1.73-.05-.7-.12-1.58-.24-2.42h3.41c-.1.74-.14,1.68-.14,2.42l.02,1.73h3Z"/>
      <path class="cls-1" d="M30.37,80.06c-.05.53-.07,1.06-.07,1.82v8.11c0,.6.02,1.54.07,2.09h-3.55c.02-.46.12-1.39.12-2.11v-8.09c0-.46-.02-1.29-.1-1.82h3.53ZM41.44,79.85c-.05.67-.1,1.44-.1,2.4v4.75c0,5.16-1.01,7.37-2.78,9.34-1.58,1.75-4.08,2.93-5.83,3.48l-2.52-2.64c2.4-.55,4.42-1.46,5.88-3.02,1.63-1.8,1.94-3.6,1.94-7.34v-4.56c0-.96-.05-1.73-.14-2.4h3.55Z"/>
      <path class="cls-1" d="M55.04,88.44l-1.75,2.69c-1.37-.96-3.86-2.57-5.47-3.43l1.73-2.64c1.63.86,4.27,2.52,5.5,3.38ZM56.96,93.91c4.08-2.28,7.44-5.57,9.34-9l1.85,3.26c-2.21,3.34-5.62,6.36-9.53,8.64-2.45,1.37-5.9,2.57-8.02,2.95l-1.8-3.14c2.69-.46,5.57-1.27,8.16-2.71ZM58.72,83.02l-1.78,2.64c-1.34-.94-3.84-2.54-5.42-3.43l1.73-2.64c1.58.86,4.22,2.57,5.47,3.43ZM65.87,83.76l-2.09.89c-.7-1.51-1.25-2.54-2.11-3.77l1.99-.84c.7,1.01,1.66,2.62,2.21,3.72ZM69.23,82.46l-2.04.91c-.77-1.51-1.37-2.45-2.26-3.65l2.04-.84c.74.96,1.68,2.52,2.26,3.58Z"/>
      <path class="cls-1" d="M89.87,84.94c1.1,0,2.11-.1,2.62-.14v3.26c-.5-.02-1.68-.1-2.64-.1h-5.4c-.14,4.82-1.66,8.76-6.84,11.86l-2.98-2.21c4.71-2.14,6.31-5.59,6.5-9.65h-6.12c-1.06,0-2.02.07-2.76.12v-3.31c.72.07,1.7.17,2.66.17h6.24v-2.64c0-.82-.1-2.06-.31-2.81h3.82c-.14.74-.19,2.09-.19,2.83v2.62h5.4Z"/>
      <path class="cls-1" d="M95.12,97.58c2.11-1.49,3.41-3.7,4.08-5.74.67-2.06.7-6.6.7-9.5,0-.96-.07-1.61-.22-2.18h3.53c-.02.1-.17,1.18-.17,2.16,0,2.83-.07,7.9-.72,10.32-.72,2.71-2.21,5.06-4.27,6.89l-2.93-1.95ZM106.24,97.95c.1-.46.19-1.13.19-1.78v-13.99c0-1.08-.17-1.99-.19-2.06h3.58c-.02.07-.17,1.01-.17,2.09v12.55c1.94-.84,4.32-2.74,5.93-5.06l1.85,2.64c-1.99,2.59-5.45,5.18-8.14,6.55-.5.26-.74.48-1.06.72l-1.99-1.66Z"/>
      <path class="cls-1" d="M141.08,82.22c-.26.31-.72.89-.94,1.25-1.13,1.87-3.41,4.9-5.78,6.58l-2.47-1.99c1.92-1.18,3.79-3.29,4.42-4.46h-12.5c-1.01,0-1.8.07-2.93.17v-3.34c.91.14,1.92.24,2.93.24h12.94c.67,0,1.99-.07,2.42-.22l1.92,1.78ZM131.29,85.46c0,5.95-.12,10.85-6.67,14.35l-2.78-2.28c.77-.26,1.63-.67,2.52-1.32,3.05-2.11,3.62-4.66,3.62-8.59,0-.74-.05-1.39-.17-2.16h3.48Z"/>
      <path class="cls-1" d="M157.04,96.39c0,1.06.05,2.54.22,3.14h-3.79c.1-.58.17-2.09.17-3.14v-7.87c-2.47,1.25-5.47,2.5-8.26,3.26l-1.73-2.93c4.2-.91,8.23-2.69,10.92-4.34,2.42-1.51,4.92-3.65,6.26-5.42l2.57,2.33c-1.82,1.82-3.98,3.62-6.36,5.16v9.82Z"/>
      <path class="cls-1" d="M186.23,86.35c.5,0,1.54-.05,2.18-.14v3.12c-.6-.05-1.51-.07-2.18-.07h-5.78c-.14,2.47-.67,4.49-1.54,6.17-.84,1.66-2.69,3.53-4.82,4.61l-2.81-2.04c1.7-.65,3.38-2.04,4.34-3.43.98-1.49,1.39-3.29,1.49-5.3h-6.6c-.7,0-1.63.05-2.3.1v-3.14c.72.07,1.56.14,2.3.14h15.72ZM173.58,83.06c-.84,0-1.85.05-2.57.1v-3.1c.77.12,1.75.17,2.54.17h9.65c.82,0,1.78-.05,2.59-.17v3.1c-.84-.05-1.75-.1-2.59-.1h-9.62Z"/>
      <path class="cls-1" d="M209.8,99.55c-.31-.82-.7-1.8-1.13-2.83-3.91.46-11.18,1.22-14.21,1.54-.6.07-1.49.19-2.26.29l-.55-3.5c.82,0,1.85,0,2.64-.02l.65-.02c1.39-3.55,3.46-10.13,4.15-12.62.34-1.22.48-1.97.58-2.76l3.82.77c-.34.72-.67,1.61-1.03,2.66-.77,2.35-2.71,8.45-3.91,11.67,2.93-.29,6.34-.67,8.76-.96-.84-1.73-1.73-3.34-2.52-4.39l3-1.22c1.7,2.59,4.15,7.3,5.26,9.99l-3.24,1.44Z"/>
      <path class="cls-1" d="M225.08,79.75c-.14.62-.29,1.37-.41,1.97-.14.72-.34,1.58-.5,2.45.79-.05,1.51-.1,1.99-.1,2.52,0,4.3,1.13,4.3,4.54,0,2.81-.34,6.6-1.34,8.67-.79,1.66-2.09,2.18-3.91,2.18-.89,0-2.04-.14-2.83-.34l-.53-3.14c.91.26,2.3.5,2.93.5.79,0,1.39-.24,1.78-1.03.65-1.32.96-4.15.96-6.5,0-1.9-.82-2.16-2.3-2.16-.38,0-.96.05-1.63.1-.94,3.6-2.66,9.19-4.85,12.7l-3.1-1.25c2.3-3.12,3.94-7.87,4.78-11.11-.84.1-1.58.19-2.04.26-.67.07-1.9.24-2.64.36l-.26-3.22c.86.07,1.66.02,2.52,0,.74-.02,1.87-.1,3.07-.19.34-1.82.53-3.55.5-5.04l3.53.36ZM233.6,82.58c1.39,2.18,3.17,6.19,3.86,8.28l-3.02,1.42c-.62-2.64-2.3-6.84-4.01-8.95l2.21-.94c-.48-.91-1.08-2.06-1.63-2.83l1.9-.79c.6.89,1.44,2.4,1.92,3.29l-1.22.53ZM235.79,81.79c-.5-1.01-1.27-2.42-1.94-3.31l1.9-.79c.65.91,1.54,2.42,1.94,3.26l-1.9.84Z"/>
      <path class="cls-1" d="M243.56,85.63c-.46-1.51-1.63-3.84-2.81-5.52l2.59-1.03c1.27,1.66,2.45,3.86,2.98,5.4l-2.76,1.15ZM251.75,86.42h7.63v14.14h-3.05v-.98h-15.55v-2.83h15.55v-2.5h-14.18v-2.76h14.18v-2.21h-15v-2.86h7.27v-8.3h3.14v8.3ZM259.79,79.8c-1.06,2.14-2.28,4.42-3.31,5.93l-2.5-.86c.94-1.66,2.04-4.13,2.62-6l3.19.94Z"/>
      <path class="cls-1" d="M276.83,84.75c-1.42.31-3.02.58-4.61.77-.22,1.03-.46,2.09-.72,3.05-.86,3.34-2.47,8.21-3.77,10.99l-3.34-1.1c1.42-2.38,3.22-7.37,4.1-10.71.17-.62.34-1.3.5-1.97-.55.02-1.08.05-1.56.05-1.15,0-2.04-.05-2.88-.1l-.07-2.98c1.22.14,2.02.19,3,.19.7,0,1.39-.02,2.11-.07.1-.53.17-.98.22-1.37.12-.89.14-1.85.1-2.4l3.62.29c-.17.65-.38,1.71-.5,2.23l-.19.91c1.34-.22,2.69-.48,3.98-.79v3ZM276.35,92.54c-.19.67-.34,1.46-.34,1.99,0,1.03.6,1.8,3.14,1.8,1.58,0,3.24-.17,4.94-.48l-.12,3.05c-1.34.17-2.95.34-4.85.34-4.01,0-6.05-1.39-6.05-3.79,0-1.08.22-2.23.41-3.17l2.86.26ZM274.96,86.57c1.32-.12,3.02-.24,4.56-.24,1.34,0,2.78.07,4.18.21l-.07,2.86c-1.18-.14-2.64-.29-4.08-.29-1.66,0-3.1.07-4.58.26v-2.81Z"/>
      <path class="cls-1" d="M304.72,82.01c-.58.36-1.13.72-1.66,1.08-1.27.89-3.77,3-5.26,4.2.79-.21,1.46-.26,2.23-.26,4.03,0,7.1,2.52,7.1,5.98,0,3.74-2.86,6.72-8.59,6.72-3.31,0-5.81-1.51-5.81-3.89,0-1.92,1.75-3.7,4.27-3.7,2.93,0,4.7,1.8,5.06,4.06,1.3-.7,1.94-1.8,1.94-3.24,0-2.14-2.16-3.58-4.92-3.58-3.65,0-6.02,1.94-8.57,4.82l-2.16-2.23c1.68-1.37,4.54-3.79,5.95-4.95,1.32-1.1,3.79-3.1,4.97-4.13-1.22.02-4.49.17-5.74.26-.65.02-1.39.1-1.94.19l-.1-3.1c.67.07,1.49.12,2.16.12,1.25,0,6.34-.12,7.68-.24.98-.07,1.54-.17,1.82-.24l1.54,2.11ZM299.34,96.96c-.14-1.54-1.03-2.54-2.33-2.54-.89,0-1.46.53-1.46,1.13,0,.89,1.01,1.49,2.4,1.49.5,0,.96-.03,1.39-.07Z"/>
      <path class="cls-1" d="M32.24,127.63c1.61-.41,3.24-.62,4.56-.62,3.65,0,6.53,1.94,6.53,5.21,0,2.81-1.46,4.92-5.23,5.86-1.1.24-2.18.34-3.12.38l-1.1-3.05c1.08,0,2.09-.02,2.93-.17,1.92-.34,3.46-1.32,3.46-3.05,0-1.61-1.44-2.54-3.5-2.54-1.46,0-3,.24-4.46.65.05,1.9.12,3.72.12,4.54,0,2.95-1.08,3.72-2.62,3.72-2.33,0-5.62-1.99-5.62-4.51,0-2.09,2.42-4.22,5.33-5.5-.02-.55-.02-1.1-.02-1.66v-1.99c-.46.02-.89.05-1.27.05-1.08,0-2.28-.02-3.31-.12l-.05-2.88c1.39.17,2.42.19,3.29.19.43,0,.89-.02,1.37-.05.02-.84.02-1.54.02-1.95,0-.5-.1-1.66-.17-2.09h3.26c-.05.43-.14,1.46-.19,2.06-.02.53-.05,1.1-.07,1.7,1.56-.22,3.12-.53,4.37-.89l.07,2.98c-1.34.31-2.98.55-4.54.74-.02.72-.02,1.44-.02,2.13v.84ZM29.63,134.31c0-.6-.02-1.68-.07-2.93-1.46.74-2.42,1.73-2.42,2.57,0,.72,1.1,1.39,1.73,1.39.43,0,.77-.21.77-1.03ZM39.42,120.62c1.82.89,4.58,2.45,5.83,3.34l-1.44,2.45c-1.13-.98-4.22-2.74-5.71-3.46l1.32-2.33Z"/>
      <path class="cls-1" d="M54.88,123.48c-.58,1.01-1.3,2.02-2.09,3.02v13.03h-2.76v-9.96c-.72.72-1.44,1.39-2.16,1.94-.22-.62-.94-2.26-1.37-2.95,2.14-1.49,4.49-3.82,5.88-6.17l2.5,1.08ZM54.47,118.27c-1.58,2.21-4.03,4.56-6.29,6.02-.29-.65-.98-1.82-1.42-2.42,1.87-1.15,3.98-3.1,4.99-4.7l2.71,1.1ZM69.06,133.32h-3.29v3.41c0,1.32-.24,1.99-1.18,2.4-.89.41-2.09.41-3.72.41-.12-.77-.53-1.82-.89-2.54,1.01.05,2.14.05,2.45.05.34-.02.43-.12.43-.38v-3.34h-5.04c.96.91,2.14,2.16,2.74,3l-2.14,1.51c-.53-.91-1.75-2.33-2.76-3.34l1.78-1.18h-3.36v-2.42h8.78v-1.37h-8.21v-2.33h13.9v2.33h-2.78v1.37h3.26l.02,2.42ZM67.76,126.14h-11.88v-8.3h11.88v8.3ZM64.88,119.83h-6.24v1.2h6.24v-1.2ZM64.88,122.9h-6.24v1.25h6.24v-1.25Z"/>
      <path class="cls-1" d="M83.94,123.48c-1.08.29-2.54.6-4.13.82-1.13,3.34-3.17,7.46-5.09,10.18l-2.9-1.46c1.92-2.33,3.79-5.83,4.85-8.4-.41.02-.82.02-1.22.02-.98,0-1.94-.02-2.98-.07l-.22-2.78c1.03.12,2.3.17,3.17.17.7,0,1.42-.02,2.14-.07.34-1.32.6-2.76.65-3.98l3.29.34c-.19.77-.48,1.97-.82,3.24,1.15-.19,2.26-.46,3.19-.74l.07,2.76ZM87.06,125.62c-.07,1.01-.02,1.99,0,3.05.02.67.07,1.82.14,3,2.04.77,3.72,1.97,4.92,3.05l-1.58,2.54c-.84-.77-1.92-1.73-3.22-2.52v.22c0,2.21-1.2,3.94-4.58,3.94-2.95,0-5.28-1.32-5.28-3.94,0-2.33,1.94-4.13,5.26-4.13.55,0,1.1.05,1.61.1-.07-1.78-.19-3.86-.26-5.3h3ZM84.44,133.49c-.62-.14-1.25-.24-1.92-.24-1.37,0-2.26.58-2.26,1.42,0,.89.74,1.49,2.04,1.49,1.61,0,2.14-.94,2.14-2.21v-.46ZM91.14,126.89c-1.37-1.1-4.08-2.66-5.71-3.38l1.54-2.35c1.7.74,4.66,2.35,5.86,3.22l-1.68,2.52Z"/>
      <path class="cls-1" d="M116.03,130.46c-.62.05-1.61.22-2.52.36-1.15.19-3.1.5-5.21.84.38,1.97.72,3.58.86,4.32.17.72.41,1.58.62,2.35l-3.46.62c-.12-.91-.19-1.73-.34-2.42-.12-.7-.43-2.35-.82-4.37-2.45.41-4.7.79-5.74.98s-1.85.36-2.4.5l-.67-3.22c.65-.02,1.73-.17,2.5-.26,1.1-.17,3.34-.53,5.76-.91l-.72-3.84c-2.11.34-3.96.65-4.7.77-.84.17-1.49.31-2.21.5l-.65-3.31c.77-.02,1.49-.07,2.23-.17.84-.1,2.69-.36,4.75-.7-.19-1.01-.36-1.8-.43-2.18-.14-.67-.31-1.25-.48-1.82l3.38-.55c.07.48.14,1.3.26,1.87.05.34.19,1.13.38,2.21,2.04-.34,3.86-.62,4.73-.79.77-.14,1.68-.34,2.26-.5l.58,3.14c-.53.05-1.49.19-2.21.29l-4.8.77.74,3.82c2.16-.36,4.13-.67,5.21-.89.94-.19,1.82-.38,2.45-.58l.62,3.17Z"/>
      <path class="cls-1" d="M131.53,132.12c1.22-1.1,2.88-3.14,3.53-4.32-.58.12-2.95.6-5.54,1.15.91,3.29,1.92,6.98,2.3,8.23.14.43.46,1.49.65,1.97l-3.26.79c-.07-.62-.24-1.42-.43-2.09-.36-1.3-1.34-5.02-2.21-8.3-2.02.43-3.77.79-4.49.96l-.74-2.88c.77-.07,1.42-.14,2.21-.29.34-.05,1.2-.19,2.3-.41-.24-.94-.46-1.7-.62-2.23-.17-.62-.41-1.2-.67-1.7l3.22-.77c.1.58.24,1.2.38,1.82l.65,2.33c3.05-.58,6.41-1.22,7.34-1.44.43-.07.89-.22,1.22-.38l1.92,1.37c-1.01,2.11-3.43,5.71-5.11,7.51l-2.64-1.32Z"/>
      <path class="cls-1" d="M154.14,132.07c4.08-2.42,7.22-6.1,8.74-9.34l1.87,3.38c-1.82,3.24-5.02,6.55-8.88,8.88-2.42,1.46-5.52,2.81-8.91,3.38l-2.02-3.17c3.74-.53,6.86-1.75,9.19-3.14ZM154.14,124.3l-2.45,2.52c-1.25-1.34-4.25-3.96-6-5.19l2.26-2.4c1.68,1.13,4.8,3.62,6.19,5.06Z"/>
      <path class="cls-1" d="M169,128.83c1.1-1.1,2.98-3.46,4.61-5.42,1.44-1.7,2.74-1.87,4.7-.22,1.61,1.37,3.41,3.26,4.9,4.87,1.61,1.75,4.18,4.49,5.9,6.48l-2.57,2.78c-1.54-1.97-3.72-4.63-5.14-6.29-1.49-1.78-3.53-4.01-4.42-4.75-.84-.72-1.25-.72-1.94.14-.94,1.2-2.67,3.58-3.65,4.9-.55.74-1.13,1.61-1.54,2.23l-2.83-2.9c.72-.6,1.25-1.1,1.97-1.82ZM185.03,119.66c1.73,0,3.12,1.39,3.12,3.12s-1.39,3.1-3.12,3.1-3.1-1.37-3.1-3.1,1.37-3.12,3.1-3.12ZM185.03,124.3c.84,0,1.54-.67,1.54-1.51s-.7-1.54-1.54-1.54-1.51.7-1.51,1.54.67,1.51,1.51,1.51Z"/>
      <path class="cls-1" d="M192.37,126.36c.86.07,2.62.14,3.86.14h12.89c1.1,0,2.18-.1,2.81-.14v3.77c-.58-.02-1.8-.12-2.81-.12h-12.89c-1.37,0-2.98.05-3.86.12v-3.77Z"/>
      <path class="cls-1" d="M226.14,132.07c4.08-2.42,7.22-6.1,8.74-9.34l1.87,3.38c-1.82,3.24-5.02,6.55-8.88,8.88-2.42,1.46-5.52,2.81-8.91,3.38l-2.02-3.17c3.74-.53,6.86-1.75,9.19-3.14ZM226.14,124.3l-2.45,2.52c-1.25-1.34-4.25-3.96-6-5.19l2.26-2.4c1.68,1.13,4.8,3.62,6.19,5.06Z"/>
      <path class="cls-1" d="M257.17,126.94c1.58,2.02,2.3,3.7,2.3,5.71,0,3.58-3.22,6.17-8.42,6.17-3.74,0-6.38-1.63-6.38-5.59,0-.58.07-1.42.17-2.4-1.73-.17-3.29-.43-4.56-.79l.17-2.88c1.54.53,3.14.79,4.68.94.14-1.06.26-2.16.41-3.24-1.66-.17-3.34-.46-4.73-.84l.17-2.76c1.37.46,3.14.74,4.87.89.1-.72.14-1.37.19-1.9.05-.65.1-1.32.05-2.11l3.34.19c-.19.87-.31,1.49-.41,2.11-.07.41-.14,1.03-.26,1.8,1.7-.02,3.24-.12,4.37-.29l-.1,2.83c-1.42.14-2.71.22-4.63.22-.14,1.06-.29,2.18-.41,3.24h.17c1.46,0,3.22-.12,4.78-.29l-.07,2.83c-1.34.12-2.74.22-4.2.22h-.96c-.05.7-.1,1.3-.1,1.73,0,1.94,1.2,3.02,3.55,3.02,3.31,0,5.14-1.51,5.14-3.48,0-1.61-.91-3.14-2.45-4.61l3.34-.72Z"/>
      <path class="cls-1" d="M266.89,126.55v13.01h-2.78v-21.51h9.24v8.5h-6.46ZM266.89,120.1v1.22h3.77v-1.22h-3.77ZM270.66,124.49v-1.32h-3.77v1.32h3.77ZM277.69,134.16v4.95h-2.5v-4.95h-2.3c-.24,1.66-1.03,3.98-3.07,5.38-.41-.5-1.27-1.25-1.82-1.63,1.54-.96,2.21-2.52,2.45-3.74h-2.42v-2.33h2.52v-1.8h-2.18v-2.26h11.59v2.26h-2.26v1.8h2.64v2.33h-2.64ZM275.2,131.83v-1.8h-2.23v1.8h2.23ZM284.34,136.23c0,1.46-.26,2.26-1.13,2.71-.86.48-2.11.55-3.94.55-.1-.79-.48-2.09-.86-2.83,1.08.05,2.26.05,2.62.02.38,0,.5-.14.5-.48v-9.6h-6.6v-8.54h9.41v18.17ZM277.64,120.1v1.22h3.89v-1.22h-3.89ZM281.53,124.54v-1.37h-3.89v1.37h3.89Z"/>
      <path class="cls-1" d="M309.28,138.63h-10.9v.86h-2.74v-9.65c-.43.5-.89.96-1.32,1.37-.46-.5-1.39-1.44-2.02-1.92v10.22h-2.71v-12.26c-.53.7-1.08,1.34-1.63,1.92-.26-.7-1.03-2.28-1.51-2.95,2.16-2.16,4.22-5.57,5.45-9l2.71.86c-.62,1.66-1.42,3.34-2.3,4.94v6.07c1.75-1.39,3.34-3.6,4.3-5.86h-1.66v-5.26h2.62v2.86h2.71v-3.55h2.83v3.55h2.93v-2.86h2.74v5.26h-6.24l2.74.62-.89,1.73h4.61v2.21h-4.87v1.44h4.22v2.09h-4.22v1.49h4.22v2.06h-4.22v1.54h5.16v2.21ZM299.39,123.82c-.24.6-.53,1.2-.84,1.78h3.07c.29-.79.55-1.66.7-2.35h-4.87l1.94.58ZM301.4,127.8h-3.02v1.44h3.02v-1.44ZM301.4,131.33h-3.02v1.49h3.02v-1.49ZM298.38,136.42h3.02v-1.54h-3.02v1.54Z"/>
      <path class="cls-1" d="M164.05,160.3v11.98h-3v-1.2h-5.42v7.49h-3.02v-7.49h-5.4v1.32h-2.88v-12.1h8.28v-4.15h3.02v4.15h8.42ZM152.6,168.26v-5.16h-5.4v5.16h5.4ZM161.05,168.26v-5.16h-5.42v5.16h5.42Z"/>
      <path class="cls-1" d="M175.67,174.34c0-1.37,1.08-2.38,2.5-2.38s2.5,1.01,2.5,2.38-1.08,2.35-2.5,2.35-2.5-.96-2.5-2.35ZM176.08,162.1l-.1-3.58h4.39l-.12,3.58-.84,8.21h-2.47l-.86-8.21Z"/>
    </g>
  </g>
</svg>