<?xml version="1.0" encoding="UTF-8"?>
<svg id="Layer_2" data-name="Layer 2" xmlns="http://www.w3.org/2000/svg" viewBox="0 0 824.03 130.59">
  <defs>
    <style>
      .cls-1 {
        fill: #ff6f0d;
      }
    </style>
  </defs>
  <g id="content">
    <g>
      <path class="cls-1" d="M192.38,24.29l2.72-3.26c1.7,1.57,3.94,2.62,6.02,2.62,2.46,0,3.78-1.06,3.78-2.72,0-1.76-1.44-2.3-3.55-3.2l-3.17-1.34c-2.4-.99-4.8-2.91-4.8-6.37,0-3.87,3.39-6.85,8.19-6.85,2.75,0,5.5,1.09,7.42,3.04l-2.4,2.98c-1.5-1.25-3.07-1.95-5.02-1.95-2.08,0-3.42.93-3.42,2.5,0,1.7,1.7,2.3,3.71,3.1l3.1,1.31c2.88,1.18,4.77,3.01,4.77,6.43,0,3.87-3.23,7.17-8.7,7.17-3.17,0-6.34-1.25-8.64-3.46Z"/>
      <path class="cls-1" d="M213.79,16.64V3.62h4.74v13.44c0,4.93,1.7,6.59,4.48,6.59s4.61-1.66,4.61-6.59V3.62h4.54v13.02c0,7.87-3.36,11.1-9.15,11.1s-9.22-3.23-9.22-11.1Z"/>
      <path class="cls-1" d="M237.85,3.62h7.78c5.25,0,9.28,1.82,9.28,7.42s-4.06,7.84-9.15,7.84h-3.17v8.42h-4.74V3.62ZM245.44,15.13c3.26,0,4.83-1.38,4.83-4.1s-1.73-3.68-4.99-3.68h-2.69v7.78h2.85Z"/>
      <path class="cls-1" d="M259.2,3.62h14.53v3.94h-9.79v5.47h8.32v3.97h-8.32v6.34h10.14v3.97h-14.88V3.62Z"/>
      <path class="cls-1" d="M291.77,27.29l-4.86-8.96h-3.3v8.96h-4.74V3.62h8.26c4.96,0,8.9,1.73,8.9,7.17,0,3.55-1.79,5.76-4.51,6.82l5.54,9.7h-5.28ZM283.61,14.59h3.07c3.04,0,4.7-1.28,4.7-3.81s-1.66-3.42-4.7-3.42h-3.07v7.23Z"/>
      <path class="cls-1" d="M307.97,3.62h4.74v9.31h8.96V3.62h4.7v23.68h-4.7v-10.24h-8.96v10.24h-4.74V3.62Z"/>
      <path class="cls-1" d="M331.01,15.36c0-7.71,4.32-12.19,10.59-12.19s10.59,4.51,10.59,12.19-4.32,12.38-10.59,12.38-10.59-4.7-10.59-12.38ZM347.36,15.36c0-5.09-2.24-8.13-5.76-8.13s-5.76,3.04-5.76,8.13,2.24,8.29,5.76,8.29,5.76-3.23,5.76-8.29Z"/>
      <path class="cls-1" d="M361.53,7.55h-6.66v-3.94h18.11v3.94h-6.72v19.74h-4.74V7.55Z"/>
      <path class="cls-1" d="M376.83,3.62h14.53v3.94h-9.79v5.47h8.32v3.97h-8.32v6.34h10.14v3.97h-14.88V3.62Z"/>
      <path class="cls-1" d="M396.51,3.62h4.74v19.71h9.6v3.97h-14.33V3.62Z"/>
      <path class="cls-1" d="M425.88,2.14c-2.05,5.02-5.41,9.98-8.67,13.02-.77-.8-2.62-2.24-3.65-2.85,3.3-2.59,6.3-6.98,7.97-11.42l4.35,1.25ZM434.78,17.12c2.78,3.46,5.79,7.97,7.36,11.04l-3.97,2.08c-.32-.77-.77-1.63-1.31-2.56-7.68.51-15.74.99-21.37,1.25l-.51-4,4.45-.16c2.05-3.81,4.26-8.93,5.47-12.93l4.58,1.06c-1.66,3.94-3.74,8.22-5.7,11.68,3.46-.16,7.2-.35,10.91-.54-1.15-1.79-2.43-3.62-3.62-5.18l3.71-1.73ZM434.33.96c1.86,3.74,5.5,8.22,8.42,10.91-.99.8-2.46,2.27-3.2,3.33-3.01-3.23-6.69-8.29-9.02-12.67l3.81-1.57Z"/>
      <path class="cls-1" d="M465.72,9.34c.67,9.34,2.62,16.73,4.96,16.73.67,0,1.06-1.7,1.22-5.76.86.9,2.27,1.86,3.33,2.24-.58,6.05-1.86,7.52-4.9,7.52-5.47,0-7.87-9.47-8.64-20.73h-15.9v-3.71h15.71c-.06-1.73-.1-3.52-.1-5.28h4.1c-.03,1.76-.03,3.55.03,5.28h5.06c-.86-1.09-2.46-2.4-3.74-3.36l2.53-2.08c1.44.99,3.33,2.5,4.19,3.55l-2.18,1.89h3.01v3.71h-8.67ZM455.61,23.71c1.95-.35,4-.74,5.95-1.12l.29,3.39c-5.25,1.15-10.88,2.34-15.01,3.2l-1.06-3.84c1.63-.26,3.74-.58,6.05-.96v-7.71h-4.83v-3.68h13.73v3.68h-5.12v7.04Z"/>
      <path class="cls-1" d="M506.62,5.63c-.35.42-.96,1.18-1.25,1.66-1.5,2.5-4.54,6.53-7.71,8.77l-3.3-2.66c2.56-1.57,5.06-4.38,5.89-5.95h-16.67c-1.34,0-2.4.1-3.9.22V3.23c1.22.19,2.56.32,3.9.32h17.25c.9,0,2.66-.1,3.23-.29l2.56,2.37ZM493.56,9.95c0,7.94-.16,14.46-8.9,19.13l-3.71-3.04c1.02-.35,2.18-.9,3.36-1.76,4.06-2.82,4.83-6.21,4.83-11.46,0-.99-.06-1.86-.22-2.88h4.64Z"/>
      <path class="cls-1" d="M530.01,4.58c.45,0,1.12-.03,1.82-.13-.03-.19-.06-.38-.06-.61,0-2.11,1.73-3.84,3.84-3.84s3.81,1.73,3.81,3.84-1.73,3.81-3.81,3.81c-.13,0-.29,0-.42-.03l-.26.96c-.74,3.14-2.11,8.1-4.8,11.65-2.88,3.84-7.14,7.01-12.86,8.83l-3.49-3.81c6.37-1.5,9.95-4.26,12.54-7.52,2.11-2.66,3.33-6.27,3.78-9.02h-14.91c-1.47,0-2.98.06-3.81.13v-4.51c.93.13,2.75.26,3.81.26h14.81ZM537.44,3.84c0-1.02-.83-1.86-1.82-1.86s-1.86.83-1.86,1.86.83,1.82,1.86,1.82,1.82-.83,1.82-1.82Z"/>
      <path class="cls-1" d="M551,2.75c-.06.7-.1,1.41-.1,2.43v10.81c0,.8.03,2.05.1,2.78h-4.74c.03-.61.16-1.86.16-2.82V5.18c0-.61-.03-1.73-.13-2.43h4.7ZM565.76,2.46c-.06.9-.13,1.92-.13,3.2v6.34c0,6.88-1.34,9.82-3.71,12.45-2.11,2.34-5.44,3.9-7.78,4.64l-3.36-3.52c3.2-.74,5.89-1.95,7.84-4.03,2.18-2.4,2.59-4.8,2.59-9.79v-6.08c0-1.28-.06-2.3-.19-3.2h4.74Z"/>
      <path class="cls-1" d="M577.5,5.25c2.66-.22,7.9-.7,13.7-1.22,3.26-.26,6.72-.45,8.96-.54l.03,4.1c-1.7,0-4.42.03-6.11.42-3.84,1.02-6.69,5.12-6.69,8.86,0,5.22,4.86,7.1,10.24,7.36l-1.47,4.38c-6.66-.42-12.93-4-12.93-10.88,0-4.58,2.53-8.16,4.67-9.76-2.75.29-9.41.99-13.09,1.79l-.42-4.35c1.28-.03,2.5-.1,3.1-.16ZM598.3,15.01l-2.43,1.09c-.8-1.76-1.47-3.01-2.5-4.45l2.37-.99c.77,1.15,1.95,3.07,2.56,4.35ZM602.01,13.44l-2.4,1.15c-.86-1.73-1.6-2.91-2.62-4.32l2.34-1.09c.8,1.12,2.02,3.01,2.69,4.26Z"/>
      <path class="cls-1" d="M613.21,2.69c-.26.64-.64,2.24-.77,2.82-.48,2.11-1.5,9.09-1.5,12.26,0,.64.03,1.41.13,2.05.42-1.12.93-2.18,1.41-3.23l1.95,1.57c-.9,2.59-1.92,5.82-2.27,7.55-.1.45-.19,1.12-.16,1.47,0,.32,0,.86.03,1.31l-3.58.26c-.64-2.21-1.25-5.82-1.25-10.11,0-4.8.93-10.78,1.31-13.21.13-.9.29-2.11.29-3.1l4.42.38ZM632.67,26.59c-1.31-1.25-2.59-2.3-3.84-3.17-.19,3.01-1.92,5.18-6.21,5.18s-7.1-1.86-7.1-5.18,2.72-5.44,7.04-5.44c.74,0,1.44.03,2.08.13-.1-1.95-.19-4.26-.22-6.5-.77.03-1.54.03-2.27.03-1.86,0-3.65-.06-5.54-.19v-3.78c1.82.19,3.65.29,5.54.29.74,0,1.5,0,2.24-.03-.03-1.57-.03-2.85-.06-3.52,0-.48-.1-1.44-.19-2.08h4.54c-.1.61-.16,1.38-.19,2.05-.03.7-.1,1.89-.1,3.3,1.73-.19,3.39-.42,4.9-.74v3.94c-1.54.22-3.2.42-4.93.54.06,3.07.22,5.6.35,7.74,2.66,1.09,4.64,2.72,6.11,4.1l-2.14,3.33ZM624.8,21.44c-.83-.22-1.7-.35-2.56-.35-1.79,0-3.01.74-3.01,1.92,0,1.28,1.28,1.86,2.94,1.86,1.95,0,2.62-1.02,2.62-2.88v-.54Z"/>
      <path class="cls-1" d="M4.99,58.67c-.64.61-1.25,1.18-1.89,1.66-.7-.67-2.24-1.89-3.1-2.5,2.69-1.76,5.22-4.67,6.62-7.65l3.71,1.09c-.35.77-.77,1.5-1.25,2.24h19.2v3.36h-3.01v4.1h4.16v3.39h-4.16v4.06h3.71v3.39H1.18v-3.39h3.81v-4.06H.7v-3.39h4.29v-2.3ZM.38,78.64c1.41-1.34,2.85-3.81,3.58-6.14l3.68.9c-.7,2.43-2.08,5.06-3.65,6.72l-3.62-1.47ZM8.35,60.98h2.3v-4.1h-2.3v4.1ZM8.35,68.43h2.3v-4.06h-2.3v4.06ZM13.25,73.2c.38,1.95.74,4.48.77,5.98l-3.71.54c0-1.54-.26-4.16-.61-6.11l3.55-.42ZM16.19,60.98v-4.1h-2.37v4.1h2.37ZM13.82,64.37v4.06h2.37v-4.06h-2.37ZM19.61,73.07c.77,1.89,1.57,4.38,1.86,5.95l-3.81.74c-.19-1.54-.93-4.13-1.63-6.08l3.58-.61ZM21.79,56.88h-2.43v4.1h2.43v-4.1ZM21.79,64.37h-2.43v4.06h2.43v-4.06ZM26.01,72.37c1.44,1.95,3.23,4.64,4.03,6.4l-3.9,1.31c-.67-1.7-2.37-4.51-3.78-6.56l3.65-1.15Z"/>
      <path class="cls-1" d="M42.98,72.91c-.48-1.02-1.38-2.69-2.3-4.16v11.23h-3.52v-11.3c-1.02,2.98-2.3,5.95-3.68,7.87-.32-1.15-1.15-2.88-1.73-3.94,1.6-1.95,3.23-5.38,4.22-8.29h-3.65v-3.55h4.83v-10.46h3.52v10.46h4.74v3.55h-4.74v.22c.93.93,3.97,4.51,4.64,5.41l-2.34,2.94ZM33.73,60.18c-.06-1.95-.7-5.06-1.44-7.36l2.66-.7c.83,2.3,1.47,5.34,1.63,7.33l-2.85.74ZM45.98,52.66c-.83,2.56-1.76,5.6-2.56,7.46l-2.4-.67c.67-2.02,1.41-5.25,1.76-7.49l3.2.7ZM58.4,71.41v8.64h-3.58v-8l-8.93,1.6-.58-3.55,9.5-1.7v-18.24h3.58v17.6l3.26-.61.58,3.55-3.84.7ZM47.46,59.79c1.86.99,4.22,2.56,5.38,3.68l-1.92,3.04c-1.06-1.15-3.39-2.88-5.25-3.97l1.79-2.75ZM52.09,58.64c-.99-1.25-3.2-2.98-4.96-4.16l1.82-2.56c1.79,1.06,4.06,2.69,5.09,3.87l-1.95,2.85Z"/>
      <path class="cls-1" d="M74.82,58.13c-.77,1.63-1.7,3.3-2.75,4.86v17.09h-3.58v-12.58c-.86.93-1.76,1.76-2.66,2.46-.38-.8-1.47-2.72-2.18-3.58,3.04-2.18,5.95-5.76,7.62-9.47l3.55,1.22ZM69.12,58.8h-3.71v-6.11h11.65v-2.46h3.9v2.46h11.77v5.66h-3.9v-2.24h-19.71v2.69ZM85.6,62.32l-.86,2.37h7.07v15.42h-3.78v-1.09h-8.77v1.12h-3.62v-15.45h5.18c.16-.77.35-1.57.51-2.37h-6.82v-3.33h18.43v3.33h-7.36ZM88.03,67.89h-8.77v2.3h8.77v-2.3ZM88.03,75.79v-2.53h-8.77v2.53h8.77Z"/>
      <path class="cls-1" d="M101.95,65.65c-1.22-1.12-3.71-2.59-5.73-3.49l2.08-2.78c1.92.77,4.51,2.08,5.79,3.17l-2.14,3.1ZM97.41,77.13c1.47-2.43,3.58-6.4,5.22-10.08l2.91,2.34c-1.41,3.36-3.17,7.01-4.83,10.08l-3.3-2.34ZM100.26,50.61c1.95.77,4.54,2.18,5.79,3.33l-2.27,3.01c-1.18-1.15-3.65-2.69-5.66-3.58l2.14-2.75ZM124.41,55.82v24h-3.9v-1.25h-10.02v1.5h-3.74v-24.25h5.38c.42-1.79.8-3.9.93-5.54l4.48.45c-.45,1.76-.99,3.52-1.5,5.09h8.38ZM110.5,59.47v5.79h10.02v-5.79h-10.02ZM120.51,74.89v-6.11h-10.02v6.11h10.02Z"/>
      <path class="cls-1" d="M152.03,64.78c1.7,1.86,3.74,3.33,6.08,4.32-.83.7-1.95,2.14-2.5,3.14-1.34-.67-2.59-1.47-3.74-2.4-.35,5.44-.8,7.9-1.66,8.86-.74.8-1.5,1.09-2.53,1.22-.93.13-2.5.13-4.16.06-.03-1.09-.48-2.59-1.12-3.55,1.44.1,2.75.13,3.39.13.54,0,.83-.06,1.15-.35.45-.45.77-1.95,1.02-5.31h-5.02c-.86,4.35-2.98,7.46-9.95,9.25-.35-.96-1.31-2.5-2.11-3.26,5.6-1.18,7.33-3.2,8.06-5.98h-4.77v-1.18c-1.18.93-2.5,1.76-3.94,2.5-.51-.9-1.6-2.37-2.34-3.1,2.4-1.12,4.38-2.59,6.05-4.32h-5.25v-3.42h7.87c.51-.83.96-1.66,1.38-2.56h-7.17v-3.36h3.46c-.45-1.15-1.25-2.59-1.98-3.74l3.17-1.15c1.02,1.38,2.05,3.26,2.5,4.51l-1.02.38h2.37c.58-1.73.99-3.52,1.31-5.31l4,.67c-.35,1.57-.77,3.14-1.25,4.64h4.45l-.48-.16c.8-1.34,1.86-3.39,2.4-4.9l3.78,1.12c-.77,1.41-1.63,2.82-2.34,3.94h4.42v3.36h-7.39c.38.9.83,1.73,1.31,2.56h7.84v3.42h-5.28ZM149.44,67.47c-.74-.83-1.44-1.73-2.05-2.69h-8.54c-.67.96-1.38,1.86-2.18,2.69h12.77ZM142.11,58.8c-.35.86-.77,1.73-1.18,2.56h4.54c-.38-.83-.74-1.66-1.06-2.56h-2.3Z"/>
      <path class="cls-1" d="M167.23,53.62c.29.58.93,1.89,1.28,2.46.48.93.99,1.95,1.47,3.01,3.84-1.7,7.68-3.2,10.91-3.2,4.93,0,7.87,2.98,7.87,6.66,0,4.45-3.04,7.23-7.9,7.23-1.7,0-3.68-.45-4.86-.9l.1-3.97c1.41.61,3.01,1.06,4.35,1.06,2.43,0,4.13-1.28,4.13-3.55,0-1.63-1.38-2.94-3.78-2.94s-5.92,1.31-9.31,2.88l.9,1.95c1.47,3.46,3.9,10.24,4.99,13.79l-4.38,1.12c-.99-3.97-2.62-9.38-4.26-13.15l-.83-1.95c-2.27,1.12-4.29,2.21-5.63,2.82l-1.86-4.06c1.22-.29,2.62-.77,3.14-1.02.93-.35,1.89-.77,2.85-1.18-.48-.96-.93-1.86-1.41-2.69-.45-.8-1.22-1.95-1.86-2.78l4.1-1.57ZM175.46,56.56c-1.12-1.12-2.88-2.85-4.13-3.78l2.91-2.05c1.15.86,3.1,2.53,4.22,3.65l-3.01,2.18Z"/>
      <path class="cls-1" d="M192.38,74.29l2.72-3.26c1.7,1.57,3.94,2.62,6.02,2.62,2.46,0,3.78-1.06,3.78-2.72,0-1.76-1.44-2.3-3.55-3.2l-3.17-1.34c-2.4-.99-4.8-2.91-4.8-6.37,0-3.87,3.39-6.85,8.19-6.85,2.75,0,5.5,1.09,7.42,3.04l-2.4,2.98c-1.5-1.25-3.07-1.95-5.02-1.95-2.08,0-3.42.93-3.42,2.5,0,1.7,1.7,2.3,3.71,3.1l3.1,1.31c2.88,1.18,4.77,3.01,4.77,6.43,0,3.87-3.23,7.17-8.7,7.17-3.17,0-6.34-1.25-8.64-3.46Z"/>
      <path class="cls-1" d="M213.79,66.64v-13.02h4.74v13.44c0,4.93,1.7,6.59,4.48,6.59s4.61-1.66,4.61-6.59v-13.44h4.54v13.02c0,7.87-3.36,11.1-9.15,11.1s-9.22-3.23-9.22-11.1Z"/>
      <path class="cls-1" d="M237.85,53.62h7.78c5.25,0,9.28,1.82,9.28,7.42s-4.06,7.84-9.15,7.84h-3.17v8.42h-4.74v-23.68ZM245.44,65.13c3.26,0,4.83-1.38,4.83-4.1s-1.73-3.68-4.99-3.68h-2.69v7.78h2.85Z"/>
      <path class="cls-1" d="M259.2,53.62h14.53v3.94h-9.79v5.47h8.32v3.97h-8.32v6.34h10.14v3.97h-14.88v-23.68Z"/>
      <path class="cls-1" d="M291.77,77.29l-4.86-8.96h-3.3v8.96h-4.74v-23.68h8.26c4.96,0,8.9,1.73,8.9,7.17,0,3.55-1.79,5.76-4.51,6.82l5.54,9.7h-5.28ZM283.61,64.59h3.07c3.04,0,4.7-1.28,4.7-3.81s-1.66-3.42-4.7-3.42h-3.07v7.23Z"/>
      <path class="cls-1" d="M307.97,53.62h4.74v9.31h8.96v-9.31h4.7v23.68h-4.7v-10.24h-8.96v10.24h-4.74v-23.68Z"/>
      <path class="cls-1" d="M331.01,65.36c0-7.71,4.32-12.19,10.59-12.19s10.59,4.51,10.59,12.19-4.32,12.38-10.59,12.38-10.59-4.7-10.59-12.38ZM347.36,65.36c0-5.09-2.24-8.13-5.76-8.13s-5.76,3.04-5.76,8.13,2.24,8.29,5.76,8.29,5.76-3.23,5.76-8.29Z"/>
      <path class="cls-1" d="M361.53,57.55h-6.66v-3.94h18.11v3.94h-6.72v19.74h-4.74v-19.74Z"/>
      <path class="cls-1" d="M376.83,53.62h14.53v3.94h-9.79v5.47h8.32v3.97h-8.32v6.34h10.14v3.97h-14.88v-23.68Z"/>
      <path class="cls-1" d="M396.51,53.62h4.74v19.71h9.6v3.97h-14.33v-23.68Z"/>
      <path class="cls-1" d="M437.79,57.2c1.06,0,2.56-.13,3.33-.26v4.26c-1.02-.03-2.24-.1-3.1-.1h-4.13c.1,4.67.22,10.02.29,14.33.03,2.05-1.15,3.23-3.58,3.23-1.95,0-3.74-.06-5.57-.19l-.35-4.16c1.44.26,3.17.38,4.26.38.8,0,1.12-.42,1.12-1.34,0-2.14,0-5.34-.06-8.64-2.82,3.68-8,8.13-13.05,10.82l-2.94-3.33c6.21-2.94,11.49-7.46,14.08-11.1h-8.74c-1.15,0-2.53.06-3.65.13v-4.26c.93.13,2.46.22,3.55.22h10.59c-.03-.83-.06-1.6-.1-2.3-.06-.93-.16-2.11-.32-3.23h4.54c-.13.99-.19,2.24-.19,3.23l.03,2.3h4Z"/>
      <path class="cls-1" d="M455,52.75c-.06.7-.1,1.41-.1,2.43v10.81c0,.8.03,2.05.1,2.78h-4.74c.03-.61.16-1.86.16-2.82v-10.78c0-.61-.03-1.73-.13-2.43h4.7ZM469.76,52.46c-.06.9-.13,1.92-.13,3.2v6.34c0,6.88-1.34,9.82-3.71,12.45-2.11,2.34-5.44,3.9-7.78,4.64l-3.36-3.52c3.2-.74,5.89-1.95,7.84-4.03,2.18-2.4,2.59-4.8,2.59-9.79v-6.08c0-1.28-.06-2.3-.19-3.2h4.74Z"/>
      <path class="cls-1" d="M487.9,63.92l-2.34,3.58c-1.82-1.28-5.15-3.42-7.3-4.58l2.3-3.52c2.18,1.15,5.7,3.36,7.33,4.51ZM490.46,71.21c5.44-3.04,9.92-7.42,12.45-12l2.46,4.35c-2.94,4.45-7.49,8.48-12.7,11.52-3.26,1.82-7.87,3.42-10.69,3.94l-2.4-4.19c3.58-.61,7.42-1.7,10.88-3.62ZM492.8,56.69l-2.37,3.52c-1.79-1.25-5.12-3.39-7.23-4.58l2.3-3.52c2.11,1.15,5.63,3.42,7.3,4.58ZM502.33,57.68l-2.78,1.18c-.93-2.02-1.66-3.39-2.82-5.02l2.66-1.12c.93,1.34,2.21,3.49,2.94,4.96ZM506.81,55.95l-2.72,1.22c-1.02-2.02-1.82-3.26-3.01-4.86l2.72-1.12c.99,1.28,2.24,3.36,3.01,4.77Z"/>
      <path class="cls-1" d="M534.33,59.25c1.47,0,2.82-.13,3.49-.19v4.35c-.67-.03-2.24-.13-3.52-.13h-7.2c-.19,6.43-2.21,11.68-9.12,15.81l-3.97-2.94c6.27-2.85,8.42-7.46,8.67-12.86h-8.16c-1.41,0-2.69.1-3.68.16v-4.42c.96.1,2.27.22,3.55.22h8.32v-3.52c0-1.09-.13-2.75-.42-3.74h5.09c-.19.99-.26,2.78-.26,3.78v3.49h7.2Z"/>
      <path class="cls-1" d="M541.34,76.11c2.82-1.98,4.54-4.93,5.44-7.65.9-2.75.93-8.8.93-12.67,0-1.28-.1-2.14-.29-2.91h4.7c-.03.13-.22,1.57-.22,2.88,0,3.78-.1,10.53-.96,13.76-.96,3.62-2.94,6.75-5.7,9.18l-3.9-2.59ZM556.16,76.59c.13-.61.26-1.5.26-2.37v-18.65c0-1.44-.22-2.66-.26-2.75h4.77c-.03.1-.22,1.34-.22,2.78v16.73c2.59-1.12,5.76-3.65,7.9-6.75l2.46,3.52c-2.66,3.46-7.26,6.91-10.85,8.74-.67.35-.99.64-1.41.96l-2.66-2.21Z"/>
      <path class="cls-1" d="M602.62,55.63c-.35.42-.96,1.18-1.25,1.66-1.5,2.5-4.54,6.53-7.71,8.77l-3.3-2.66c2.56-1.57,5.06-4.38,5.89-5.95h-16.67c-1.34,0-2.4.1-3.9.22v-4.45c1.22.19,2.56.32,3.9.32h17.25c.9,0,2.66-.1,3.23-.29l2.56,2.37ZM589.56,59.95c0,7.94-.16,14.46-8.9,19.13l-3.71-3.04c1.02-.35,2.18-.9,3.36-1.76,4.06-2.82,4.83-6.21,4.83-11.46,0-.99-.06-1.86-.22-2.88h4.64Z"/>
      <path class="cls-1" d="M623.9,74.51c0,1.41.06,3.39.29,4.19h-5.06c.13-.77.22-2.78.22-4.19v-10.5c-3.3,1.66-7.3,3.33-11.01,4.35l-2.3-3.9c5.6-1.22,10.98-3.58,14.56-5.79,3.23-2.02,6.56-4.86,8.35-7.23l3.42,3.1c-2.43,2.43-5.31,4.83-8.48,6.88v13.09Z"/>
      <path class="cls-1" d="M662.81,61.14c.67,0,2.05-.06,2.91-.19v4.16c-.8-.06-2.02-.1-2.91-.1h-7.71c-.19,3.3-.9,5.98-2.05,8.22-1.12,2.21-3.58,4.7-6.43,6.14l-3.74-2.72c2.27-.86,4.51-2.72,5.79-4.58,1.31-1.98,1.86-4.38,1.98-7.07h-8.8c-.93,0-2.18.06-3.07.13v-4.19c.96.1,2.08.19,3.07.19h20.96ZM645.95,56.75c-1.12,0-2.46.06-3.42.13v-4.13c1.02.16,2.34.22,3.39.22h12.86c1.09,0,2.37-.06,3.46-.22v4.13c-1.12-.06-2.34-.13-3.46-.13h-12.83Z"/>
      <path class="cls-1" d="M694.24,78.73c-.42-1.09-.93-2.4-1.5-3.78-5.22.61-14.91,1.63-18.94,2.05-.8.1-1.98.26-3.01.38l-.74-4.67c1.09,0,2.46,0,3.52-.03l.86-.03c1.86-4.74,4.61-13.5,5.54-16.83.45-1.63.64-2.62.77-3.68l5.09,1.02c-.45.96-.9,2.14-1.38,3.55-1.02,3.14-3.62,11.26-5.22,15.55,3.9-.38,8.45-.9,11.68-1.28-1.12-2.3-2.3-4.45-3.36-5.86l4-1.63c2.27,3.46,5.54,9.73,7.01,13.31l-4.32,1.92Z"/>
      <path class="cls-1" d="M714.62,52.34c-.19.83-.38,1.82-.54,2.62-.19.96-.45,2.11-.67,3.26,1.06-.06,2.02-.13,2.66-.13,3.36,0,5.73,1.5,5.73,6.05,0,3.74-.45,8.8-1.79,11.55-1.06,2.21-2.78,2.91-5.22,2.91-1.18,0-2.72-.19-3.78-.45l-.7-4.19c1.22.35,3.07.67,3.9.67,1.05,0,1.86-.32,2.37-1.38.86-1.76,1.28-5.54,1.28-8.67,0-2.53-1.09-2.88-3.07-2.88-.51,0-1.28.06-2.18.13-1.25,4.8-3.55,12.26-6.46,16.93l-4.13-1.66c3.07-4.16,5.25-10.5,6.37-14.81-1.12.13-2.11.26-2.72.35-.9.1-2.53.32-3.52.48l-.35-4.29c1.15.1,2.21.03,3.36,0,.99-.03,2.5-.13,4.1-.26.45-2.43.71-4.74.67-6.72l4.7.48ZM725.98,56.11c1.86,2.91,4.22,8.26,5.15,11.04l-4.03,1.89c-.83-3.52-3.07-9.12-5.34-11.94l2.94-1.25c-.64-1.22-1.44-2.75-2.18-3.78l2.53-1.06c.8,1.18,1.92,3.2,2.56,4.38l-1.63.7ZM728.89,55.06c-.67-1.34-1.7-3.23-2.59-4.42l2.53-1.06c.86,1.22,2.05,3.23,2.59,4.35l-2.53,1.12Z"/>
      <path class="cls-1" d="M739.26,60.18c-.61-2.02-2.18-5.12-3.74-7.36l3.46-1.38c1.7,2.21,3.26,5.15,3.97,7.2l-3.68,1.54ZM750.17,61.23h10.18v18.85h-4.06v-1.31h-20.73v-3.78h20.73v-3.33h-18.91v-3.68h18.91v-2.94h-20v-3.81h9.7v-11.07h4.19v11.07ZM760.89,52.4c-1.41,2.85-3.04,5.89-4.42,7.9l-3.33-1.15c1.25-2.21,2.72-5.5,3.49-8l4.26,1.25Z"/>
      <path class="cls-1" d="M783.61,58.99c-1.89.42-4.03.77-6.14,1.02-.29,1.38-.61,2.78-.96,4.06-1.15,4.45-3.3,10.94-5.02,14.65l-4.45-1.47c1.89-3.17,4.29-9.82,5.47-14.27.22-.83.45-1.73.67-2.62-.74.03-1.44.06-2.08.06-1.54,0-2.72-.06-3.84-.13l-.1-3.97c1.63.19,2.69.26,4,.26.93,0,1.86-.03,2.82-.1.13-.7.22-1.31.29-1.82.16-1.18.19-2.46.13-3.2l4.83.38c-.22.86-.51,2.27-.67,2.98l-.26,1.22c1.79-.29,3.58-.64,5.31-1.06v4ZM782.97,69.39c-.26.9-.45,1.95-.45,2.66,0,1.38.8,2.4,4.19,2.4,2.11,0,4.32-.22,6.59-.64l-.16,4.06c-1.79.22-3.94.45-6.46.45-5.34,0-8.06-1.86-8.06-5.06,0-1.44.29-2.98.54-4.22l3.81.35ZM781.12,61.42c1.76-.16,4.03-.32,6.08-.32,1.79,0,3.71.1,5.57.29l-.1,3.81c-1.57-.19-3.52-.38-5.44-.38-2.21,0-4.13.1-6.11.35v-3.74Z"/>
      <path class="cls-1" d="M820.79,55.34c-.77.48-1.5.96-2.21,1.44-1.7,1.18-5.02,4-7.01,5.6,1.06-.29,1.95-.35,2.98-.35,5.38,0,9.47,3.36,9.47,7.97,0,4.99-3.81,8.96-11.46,8.96-4.42,0-7.74-2.02-7.74-5.18,0-2.56,2.33-4.93,5.7-4.93,3.9,0,6.27,2.4,6.75,5.41,1.73-.93,2.59-2.4,2.59-4.32,0-2.85-2.88-4.77-6.56-4.77-4.86,0-8.03,2.59-11.42,6.43l-2.88-2.98c2.24-1.82,6.05-5.06,7.94-6.59,1.76-1.47,5.05-4.13,6.62-5.5-1.63.03-5.98.22-7.65.35-.86.03-1.86.13-2.59.26l-.13-4.13c.9.1,1.98.16,2.88.16,1.66,0,8.45-.16,10.24-.32,1.31-.1,2.05-.22,2.43-.32l2.05,2.82ZM813.63,75.28c-.19-2.05-1.38-3.39-3.1-3.39-1.19,0-1.95.7-1.95,1.5,0,1.18,1.34,1.98,3.2,1.98.67,0,1.28-.03,1.86-.1Z"/>
      <path class="cls-1" d="M202.99,114.17c2.14-.54,4.32-.83,6.08-.83,4.86,0,8.7,2.59,8.7,6.94,0,3.74-1.95,6.56-6.98,7.81-1.47.32-2.91.45-4.16.51l-1.47-4.06c1.44,0,2.78-.03,3.9-.22,2.56-.45,4.61-1.76,4.61-4.06,0-2.14-1.92-3.39-4.67-3.39-1.95,0-4,.32-5.95.86.06,2.53.16,4.96.16,6.05,0,3.94-1.44,4.96-3.49,4.96-3.1,0-7.49-2.66-7.49-6.02,0-2.78,3.23-5.63,7.1-7.33-.03-.74-.03-1.47-.03-2.21v-2.66c-.61.03-1.18.06-1.7.06-1.44,0-3.04-.03-4.42-.16l-.06-3.84c1.86.22,3.23.26,4.38.26.58,0,1.18-.03,1.82-.06.03-1.12.03-2.05.03-2.59,0-.67-.13-2.21-.22-2.78h4.35c-.06.58-.19,1.95-.26,2.75-.03.7-.06,1.47-.1,2.27,2.08-.29,4.16-.7,5.82-1.18l.1,3.97c-1.79.42-3.97.74-6.05.99-.03.96-.03,1.92-.03,2.85v1.12ZM199.5,123.07c0-.8-.03-2.24-.1-3.9-1.95.99-3.23,2.3-3.23,3.42,0,.96,1.47,1.86,2.3,1.86.58,0,1.02-.29,1.02-1.38ZM212.56,104.83c2.43,1.18,6.11,3.26,7.78,4.45l-1.92,3.26c-1.5-1.31-5.63-3.65-7.62-4.61l1.76-3.1Z"/>
      <path class="cls-1" d="M233.17,108.64c-.77,1.34-1.73,2.69-2.78,4.03v17.38h-3.68v-13.28c-.96.96-1.92,1.86-2.88,2.59-.29-.83-1.25-3.01-1.82-3.94,2.85-1.98,5.98-5.09,7.84-8.22l3.33,1.44ZM232.62,101.7c-2.11,2.94-5.38,6.08-8.38,8.03-.38-.86-1.31-2.43-1.89-3.23,2.5-1.54,5.31-4.13,6.66-6.27l3.62,1.47ZM252.08,121.76h-4.38v4.54c0,1.76-.32,2.66-1.57,3.2-1.18.54-2.78.54-4.96.54-.16-1.02-.7-2.43-1.18-3.39,1.34.06,2.85.06,3.26.06.45-.03.58-.16.58-.51v-4.45h-6.72c1.28,1.22,2.85,2.88,3.65,4l-2.85,2.02c-.7-1.22-2.34-3.1-3.68-4.45l2.37-1.57h-4.48v-3.23h11.71v-1.82h-10.94v-3.1h18.53v3.1h-3.71v1.82h4.35l.03,3.23ZM250.35,112.19h-15.84v-11.07h15.84v11.07ZM246.51,103.78h-8.32v1.6h8.32v-1.6ZM246.51,107.87h-8.32v1.66h8.32v-1.66Z"/>
      <path class="cls-1" d="M271.92,108.64c-1.44.38-3.39.8-5.5,1.09-1.5,4.45-4.22,9.95-6.78,13.57l-3.87-1.95c2.56-3.1,5.06-7.78,6.46-11.2-.54.03-1.09.03-1.63.03-1.31,0-2.59-.03-3.97-.1l-.29-3.71c1.38.16,3.07.22,4.22.22.93,0,1.89-.03,2.85-.1.45-1.76.8-3.68.86-5.31l4.38.45c-.26,1.02-.64,2.62-1.09,4.32,1.54-.26,3.01-.61,4.26-.99l.1,3.68ZM276.08,111.49c-.1,1.34-.03,2.66,0,4.06.03.9.1,2.43.19,4,2.72,1.02,4.96,2.62,6.56,4.06l-2.11,3.39c-1.12-1.02-2.56-2.3-4.29-3.36v.29c0,2.94-1.6,5.25-6.11,5.25-3.94,0-7.04-1.76-7.04-5.25,0-3.1,2.59-5.5,7.01-5.5.74,0,1.47.06,2.14.13-.1-2.37-.26-5.15-.35-7.07h4ZM272.59,121.98c-.83-.19-1.66-.32-2.56-.32-1.82,0-3.01.77-3.01,1.89,0,1.18.99,1.98,2.72,1.98,2.14,0,2.85-1.25,2.85-2.94v-.61ZM281.52,113.18c-1.82-1.47-5.44-3.55-7.62-4.51l2.05-3.14c2.27.99,6.21,3.14,7.81,4.29l-2.24,3.36Z"/>
      <path class="cls-1" d="M314.7,117.95c-.83.06-2.14.29-3.36.48-1.54.26-4.13.67-6.94,1.12.51,2.62.96,4.77,1.15,5.76.22.96.54,2.11.83,3.14l-4.61.83c-.16-1.22-.26-2.3-.45-3.23-.16-.93-.58-3.14-1.09-5.82-3.26.54-6.27,1.06-7.65,1.31-1.38.26-2.46.48-3.2.67l-.9-4.29c.86-.03,2.3-.22,3.33-.35,1.47-.22,4.45-.7,7.68-1.22l-.96-5.12c-2.82.45-5.28.86-6.27,1.02-1.12.22-1.98.42-2.94.67l-.86-4.42c1.02-.03,1.98-.1,2.98-.22,1.12-.13,3.58-.48,6.34-.93-.26-1.34-.48-2.4-.58-2.91-.19-.9-.42-1.66-.64-2.43l4.51-.74c.1.64.19,1.73.35,2.5.06.45.26,1.5.51,2.94,2.72-.45,5.15-.83,6.3-1.06,1.02-.19,2.24-.45,3.01-.67l.77,4.19c-.7.06-1.98.26-2.94.38l-6.4,1.02.99,5.09c2.88-.48,5.5-.9,6.94-1.18,1.25-.26,2.43-.51,3.26-.77l.83,4.22Z"/>
      <path class="cls-1" d="M335.37,120.16c1.63-1.47,3.84-4.19,4.7-5.76-.77.16-3.94.8-7.39,1.54,1.22,4.38,2.56,9.31,3.07,10.98.19.58.61,1.98.86,2.62l-4.35,1.06c-.1-.83-.32-1.89-.58-2.78-.48-1.73-1.79-6.69-2.94-11.07-2.69.58-5.02,1.06-5.98,1.28l-.99-3.84c1.02-.1,1.89-.19,2.94-.38.45-.06,1.6-.26,3.07-.54-.32-1.25-.61-2.27-.83-2.98-.22-.83-.54-1.6-.9-2.27l4.29-1.02c.13.77.32,1.6.51,2.43l.86,3.1c4.06-.77,8.54-1.63,9.79-1.92.58-.1,1.18-.29,1.63-.51l2.56,1.82c-1.34,2.82-4.58,7.62-6.82,10.02l-3.52-1.76Z"/>
      <path class="cls-1" d="M365.52,120.09c5.44-3.23,9.63-8.13,11.65-12.45l2.5,4.51c-2.43,4.32-6.69,8.74-11.84,11.84-3.23,1.95-7.36,3.74-11.87,4.51l-2.69-4.22c4.99-.7,9.15-2.34,12.25-4.19ZM365.52,109.73l-3.26,3.36c-1.66-1.79-5.66-5.28-8-6.91l3.01-3.2c2.24,1.5,6.4,4.83,8.26,6.75Z"/>
      <path class="cls-1" d="M385.33,115.77c1.47-1.47,3.97-4.61,6.14-7.23,1.92-2.27,3.65-2.5,6.27-.29,2.14,1.82,4.54,4.35,6.53,6.5,2.14,2.34,5.57,5.98,7.87,8.64l-3.42,3.71c-2.05-2.62-4.96-6.18-6.85-8.38-1.98-2.37-4.7-5.34-5.89-6.34-1.12-.96-1.66-.96-2.59.19-1.25,1.6-3.55,4.77-4.86,6.53-.74.99-1.5,2.14-2.05,2.98l-3.78-3.87c.96-.8,1.66-1.47,2.62-2.43ZM406.7,103.55c2.3,0,4.16,1.86,4.16,4.16s-1.86,4.13-4.16,4.13-4.13-1.82-4.13-4.13,1.82-4.16,4.13-4.16ZM406.7,109.73c1.12,0,2.05-.9,2.05-2.02s-.93-2.05-2.05-2.05-2.02.93-2.02,2.05.9,2.02,2.02,2.02Z"/>
      <path class="cls-1" d="M416.49,112.48c1.15.1,3.49.19,5.15.19h17.18c1.47,0,2.91-.13,3.74-.19v5.02c-.77-.03-2.4-.16-3.74-.16h-17.18c-1.82,0-3.97.06-5.15.16v-5.02Z"/>
      <path class="cls-1" d="M461.52,120.09c5.44-3.23,9.63-8.13,11.65-12.45l2.5,4.51c-2.43,4.32-6.69,8.74-11.84,11.84-3.23,1.95-7.36,3.74-11.87,4.51l-2.69-4.22c4.99-.7,9.15-2.34,12.25-4.19ZM461.52,109.73l-3.26,3.36c-1.66-1.79-5.66-5.28-8-6.91l3.01-3.2c2.24,1.5,6.4,4.83,8.26,6.75Z"/>
      <path class="cls-1" d="M502.89,113.25c2.11,2.69,3.07,4.93,3.07,7.62,0,4.77-4.29,8.22-11.23,8.22-4.99,0-8.51-2.18-8.51-7.46,0-.77.1-1.89.22-3.2-2.3-.22-4.38-.58-6.08-1.06l.22-3.84c2.05.7,4.19,1.06,6.24,1.25.19-1.41.35-2.88.54-4.32-2.21-.22-4.45-.61-6.3-1.12l.22-3.68c1.82.61,4.19.99,6.5,1.18.13-.96.19-1.82.26-2.53.06-.86.13-1.76.06-2.82l4.45.26c-.26,1.15-.42,1.98-.54,2.82-.1.54-.19,1.38-.35,2.4,2.27-.03,4.32-.16,5.82-.38l-.13,3.78c-1.89.19-3.62.29-6.18.29-.19,1.41-.38,2.91-.54,4.32h.22c1.95,0,4.29-.16,6.37-.38l-.1,3.78c-1.79.16-3.65.29-5.6.29h-1.28c-.06.93-.13,1.73-.13,2.3,0,2.59,1.6,4.03,4.74,4.03,4.42,0,6.85-2.02,6.85-4.64,0-2.14-1.22-4.19-3.26-6.14l4.45-.96Z"/>
      <path class="cls-1" d="M515.85,112.73v17.34h-3.71v-28.67h12.32v11.33h-8.61ZM515.85,104.13v1.63h5.02v-1.63h-5.02ZM520.88,109.98v-1.76h-5.02v1.76h5.02ZM530.25,122.88v6.59h-3.33v-6.59h-3.07c-.32,2.21-1.38,5.31-4.1,7.17-.54-.67-1.7-1.66-2.43-2.18,2.05-1.28,2.94-3.36,3.26-4.99h-3.23v-3.1h3.36v-2.4h-2.91v-3.01h15.46v3.01h-3.01v2.4h3.52v3.1h-3.52ZM526.93,119.77v-2.4h-2.98v2.4h2.98ZM539.12,125.63c0,1.95-.35,3.01-1.5,3.62-1.15.64-2.82.74-5.25.74-.13-1.06-.64-2.78-1.15-3.78,1.44.06,3.01.06,3.49.03.51,0,.67-.19.67-.64v-12.8h-8.8v-11.39h12.54v24.22ZM530.19,104.13v1.63h5.18v-1.63h-5.18ZM535.37,110.05v-1.82h-5.18v1.82h5.18Z"/>
      <path class="cls-1" d="M572.36,128.83h-14.53v1.15h-3.65v-12.86c-.58.67-1.18,1.28-1.76,1.82-.61-.67-1.86-1.92-2.69-2.56v13.63h-3.62v-16.35c-.7.93-1.44,1.79-2.18,2.56-.35-.93-1.38-3.04-2.02-3.94,2.88-2.88,5.63-7.42,7.26-12l3.62,1.15c-.83,2.21-1.89,4.45-3.07,6.59v8.1c2.34-1.86,4.45-4.8,5.73-7.81h-2.21v-7.01h3.49v3.81h3.62v-4.74h3.78v4.74h3.9v-3.81h3.65v7.01h-8.32l3.65.83-1.18,2.3h6.14v2.94h-6.5v1.92h5.63v2.78h-5.63v1.98h5.63v2.75h-5.63v2.05h6.88v2.94ZM559.18,109.09c-.32.8-.7,1.6-1.12,2.37h4.1c.38-1.06.74-2.21.93-3.14h-6.5l2.59.77ZM561.87,114.4h-4.03v1.92h4.03v-1.92ZM561.87,119.1h-4.03v1.98h4.03v-1.98ZM557.84,125.89h4.03v-2.05h-4.03v2.05Z"/>
      <path class="cls-1" d="M602.73,105.73v15.97h-4v-1.6h-7.23v9.98h-4.03v-9.98h-7.2v1.76h-3.84v-16.13h11.04v-5.54h4.03v5.54h11.23ZM587.47,116.35v-6.88h-7.2v6.88h7.2ZM598.73,116.35v-6.88h-7.23v6.88h7.23Z"/>
      <path class="cls-1" d="M618.22,124.45c0-1.82,1.44-3.17,3.33-3.17s3.33,1.34,3.33,3.17-1.44,3.14-3.33,3.14-3.33-1.28-3.33-3.14ZM618.77,108.13l-.13-4.77h5.86l-.16,4.77-1.12,10.94h-3.3l-1.15-10.94Z"/>
    </g>
  </g>
</svg>