<?xml version="1.0" encoding="UTF-8"?>
<svg id="_レイヤー_2" data-name="レイヤー 2" xmlns="http://www.w3.org/2000/svg" viewBox="0 0 116.4 115">
  <defs>
    <style>
      .cls-1 {
        fill: #ffdc6c;
      }

      .cls-2 {
        fill: #fff;
      }

      .cls-3 {
        fill: #ff6f0d;
      }

      .cls-4 {
        fill: none;
        stroke: #ffdc6c;
        stroke-linecap: round;
        stroke-linejoin: round;
        stroke-width: 3px;
      }
    </style>
  </defs>
  <g id="content">
    <g>
      <line class="cls-4" x1="82.4" y1="77.5" x2="114.9" y2="102.8"/>
      <g>
        <path class="cls-2" d="M52.8,104.1C24.5,104.1,1.5,81.1,1.5,52.8S24.5,1.5,52.8,1.5s51.3,23,51.3,51.3-23,51.3-51.3,51.3Z"/>
        <path class="cls-1" d="M52.8,3c27.5,0,49.8,22.4,49.8,49.8s-22.4,49.8-49.8,49.8S3,80.3,3,52.8,25.4,3,52.8,3M52.8,0C23.7,0,0,23.7,0,52.8s23.7,52.8,52.8,52.8,52.8-23.7,52.8-52.8S82,0,52.8,0h0Z"/>
      </g>
      <g>
        <g>
          <path class="cls-3" d="M24.7,62.3c2.4-16.7,6.5-23.9,14.3-23.9s10.6,7.2,8.4,23.9c-2.2,16.5-6.4,23.7-14.4,23.7s-10.6-7.2-8.3-23.7ZM41.5,62.3c2-13,1.4-18.7-2.9-18.7s-6.2,5.6-8.1,18.7c-2,12.9-1.2,18.4,3,18.4s6-5.6,8-18.4Z"/>
          <path class="cls-3" d="M71,73.3l-1.7,12h-5.6l1.7-12h-14.2l.6-4.4c5.8-8.8,13.4-20.4,18.6-29.9h5.5l-4.1,29.1h3.9l-.8,5.2h-3.9ZM69.5,48.6c-3.6,6.5-8,13.7-11.7,19.5h8.4l.4-2.9c.8-5.2,2-11.9,3-16.6Z"/>
        </g>
        <g>
          <path class="cls-3" d="M33.7,27.7c0-.2,0-.4.1-.6,0-.1.2-.2.4-.3,0,0,0,0,0,0,.2,0,.3,0,.5.1,0,0,.2.2.2.3,0,0,0,0,0,.1,0,.3.1.6.2.8.2.5.5.9,1,1,.5.2,1.2.1,2.1,0,1.3-.3,2.4-.7,3.4-1.2,0,0,0,0,.1,0,.1,0,.2,0,.4,0,.2,0,.3.2.3.5,0,.2,0,.4,0,.6,0,.2-.2.3-.4.4-.9.4-2,.8-3.3,1.1-1.2.3-2.2.4-3,0-.8-.3-1.4-.9-1.7-1.8-.1-.4-.2-.8-.3-1.3ZM33.5,22.5c-.2,0-.4,0-.6-.1-.2-.1-.3-.3-.4-.5,0-.2,0-.4,0-.6,0-.1.2-.2.4-.3,0,0,0,0,0,0,.9-.2,1.8-.4,2.9-.7,1-.3,2-.5,3-.9,0,0,0,0,0,0,.2,0,.3,0,.5,0,.2.1.3.3.3.5,0,.2,0,.4,0,.6-.1.2-.3.3-.5.4-1.2.3-2.1.6-2.9.8-1,.3-2,.5-2.9.7Z"/>
          <path class="cls-3" d="M48.9,18.7s0,0,.1,0c.1,0,.2,0,.3.1.1.1.2.3.2.4,0,.2,0,.4-.1.6-.1.2-.3.3-.4.3-.6.2-1.2.3-1.9.5,0,0,0,0-.1.1,0,.5-.1,1.1-.2,1.8-.2,2.3-.5,4.3-.9,6.1,0,.2-.2.4-.3.5,0,0-.2.1-.3.1,0,0-.2,0-.3,0,0,0,0,0,0,0-.2,0-.3-.2-.4-.4,0,0,0-.2,0-.3,0-.1,0-.2,0-.3.2-.8.3-1.8.5-2.9.2-1.1.3-2.2.4-3.1,0-.4,0-.8.1-1.3,0,0,0,0,0,0,0,0,0,0,0,0-.4,0-.7.1-.9.1-.4,0-.7,0-.9.1-.2,0-.3,0-.5-.2-.2-.1-.2-.3-.3-.5,0-.2,0-.3.1-.5,0-.1.2-.2.4-.2,0,0,0,0,0,0,.3,0,.6,0,1-.1.4,0,.8-.1,1.2-.2,0,0,.1,0,.1-.1,0-.5,0-.9,0-1,0-.2,0-.3,0-.5,0-.2,0-.4.2-.6.1-.2.3-.3.5-.3,0,0,0,0,0,0,0,0,0,0,0,0,.2,0,.4,0,.5.2.1.1.2.3.2.4,0,0,0,.1,0,.2,0,.1,0,.3,0,.4,0,.3,0,.5,0,.8,0,0,0,0,0,0,0,0,0,0,0,0,.5-.1,1.1-.3,1.6-.5ZM48.5,25.7c0-.2,0-.4.2-.5.1-.1.2-.2.4-.2,0,0,0,0,0,0,.2,0,.3,0,.4.2,0,.1.1.2.1.4,0,0,0,0,0,.1,0,.2,0,.4,0,.6,0,.2,0,.3.1.5,0,.1.2.3.3.4.1.1.3.2.6.2.3,0,.6,0,.9,0,.6,0,1.1-.1,1.8-.2,0,0,0,0,0,0,.1,0,.2,0,.3.2.1.1.2.3.2.4,0,.2,0,.4-.2.6-.1.2-.3.3-.4.3-.6,0-1.1.2-1.7.2-1,0-1.7,0-2.2-.4-.5-.3-.8-.9-.9-1.6,0-.3,0-.7,0-1.1ZM49.6,22.7s0,0,0,0c-.1,0-.3,0-.4-.1-.1-.1-.2-.2-.2-.4,0-.2,0-.4.1-.5.1-.2.2-.2.4-.3.7-.1,1.3-.2,1.8-.2.6,0,1.1,0,1.7,0,.2,0,.3,0,.4.2.1.1.2.3.2.5,0,.2,0,.4-.2.5-.1.1-.2.2-.4.2,0,0,0,0,0,0-.6,0-1.1,0-1.6,0-.7,0-1.3.1-1.8.2ZM53,18.7c0,.1,0,.3,0,.4,0,.1-.1.2-.2.3-.1,0-.2,0-.4,0-.1,0-.2-.1-.3-.3-.2-.4-.5-.8-.7-1.1,0-.1,0-.2,0-.4,0-.1.1-.2.2-.3.1,0,.3,0,.4,0,.1,0,.3.1.3.2.2.3.4.7.7,1.1ZM53.1,17.3c0,0,0-.1,0-.2,0,0,0,0,0-.1,0-.1.1-.2.2-.3,0,0,.1,0,.2,0,0,0,.1,0,.2,0,.1,0,.2.1.3.3.2.4.5.7.7,1.1,0,0,0,.2,0,.2,0,0,0,.1,0,.2,0,.1-.1.2-.2.3,0,0-.1,0-.2,0,0,0-.1,0-.2,0-.1,0-.2-.1-.3-.3-.2-.4-.4-.8-.7-1.2Z"/>
          <path class="cls-3" d="M60.5,18.6c0,0,0,.1,0,.2.1.2.2.4.2.6,0,.2,0,.4-.2.5,0,0-.1.2-.2.3,0,0,0,.1,0,.2,0,0,0,.1,0,.2,0,.1,0,.2,0,.3,0,0,0,0,0,0,0,0,0,0,0,0,1.3-1,2.7-1.4,4.1-1.2,1,.1,1.8.6,2.4,1.4.6.8.7,1.8.6,2.9-.2,1.3-.7,2.3-1.5,3-.8.7-1.8,1.2-3.1,1.4,0,0-.1,0-.2,0-.1,0-.2,0-.3-.1-.2-.1-.3-.3-.3-.5,0,0,0-.2,0-.3,0,0,0-.2,0-.3,0-.2.2-.3.4-.3,1-.2,1.8-.5,2.5-1,.7-.5,1.1-1.3,1.2-2.3,0-.6,0-1.2-.4-1.8-.3-.5-.9-.9-1.6-1-1.3-.2-2.7.4-4,1.6,0,0,0,.1,0,.2,0,.5,0,1-.1,1.4-.1,1.7-.2,3-.2,3.7,0,0,0,.2,0,.3,0,.2,0,.4-.2.5-.1.2-.3.2-.4.2-.2,0-.3,0-.4-.3-.1-.2-.2-.3-.1-.5,0,0,0-.1,0-.2,0-1,.1-2.2.2-3.7,0,0,0,0,0,0,0,0,0,0,0,0-.7,1.1-1.2,1.9-1.5,2.4-.1.2-.2.2-.4.2-.2,0-.3,0-.4-.2-.1-.2-.2-.4-.1-.6,0-.3,0-.5.2-.7,1-1.4,1.8-2.6,2.4-3.5,0,0,0-.1,0-.2,0-.4,0-.7.1-1.1,0,0,0,0,0,0,0,0,0,0,0,0-.2,0-.8,0-1.7.2,0,0,0,0,0,0-.1,0-.3,0-.4-.2-.1-.1-.2-.3-.2-.5,0,0,0,0,0,0,0-.2,0-.3.2-.4.1-.1.3-.2.5-.2,0,0,.1,0,.2,0,0,0,.1,0,.1,0,.4,0,1,0,1.7-.1,0,0,.1,0,.1-.1,0-.6.1-1,.1-1.2,0-.1,0-.2,0-.4,0-.2,0-.4.2-.6.1-.1.3-.2.5-.2,0,0,0,0,0,0,0,0,0,0,0,0,.2,0,.4.1.5.3,0,.2.1.3.1.5,0,0,0,0,0,.1,0,.4-.1.8-.2,1.2Z"/>
          <path class="cls-3" d="M71.5,18.9c0-.2.2-.4.4-.5.2-.1.4-.1.6,0,0,0,0,0,0,0,.2,0,.3.2.4.4,0,.1,0,.3,0,.4,0,0,0,0,0,.2-.4.9-.7,1.7-1,2.6,0,0,0,0,0,0,0,0,0,0,0,0,.5-.7,1.1-1.2,1.9-1.6.7-.4,1.5-.5,2.2-.3.9.3,1.6.9,1.9,2,.3,1.1.2,2.3-.3,3.8-1.1,3.3-3.2,4.8-6.3,5,0,0-.1,0-.2,0-.1,0-.2,0-.3-.2-.2-.1-.3-.3-.3-.5,0,0,0-.2,0-.3,0,0,0-.1,0-.2.1-.2.2-.2.4-.2.6,0,1.2,0,1.7-.2.5-.1,1-.3,1.5-.6.5-.3.9-.7,1.3-1.2.4-.5.7-1.2.9-2,.3-1.1.4-2,.3-2.8-.1-.8-.5-1.2-1.2-1.4-.5-.1-1.1,0-1.7.3-.6.4-1.1.8-1.6,1.5-.4.6-.8,1.2-.9,1.9,0,.2-.1.4-.2.6,0,.1,0,.3,0,.4,0,.2-.1.3-.3.4-.1.1-.3.2-.5.2,0,0,0,0,0,0-.2,0-.3-.1-.4-.3-.1-.2-.2-.3-.1-.5,0-.6.2-1.1.3-1.6.2-1.1.7-2.6,1.4-4.5,0-.2.1-.4.2-.6Z"/>
        </g>
      </g>
    </g>
  </g>
</svg>