<?xml version="1.0" encoding="UTF-8"?>
<svg id="Layer_2" data-name="Layer 2" xmlns="http://www.w3.org/2000/svg" viewBox="0 0 516.32 185.26">
  <defs>
    <style>
      .cls-1 {
        stroke: #231815;
        stroke-width: 2.5px;
      }

      .cls-1, .cls-2, .cls-3 {
        fill: none;
        stroke-linecap: round;
        stroke-linejoin: round;
      }

      .cls-2 {
        stroke: #303030;
        stroke-width: .25px;
      }

      .cls-4 {
        fill: #ffe893;
      }

      .cls-5 {
        fill: #fffcf8;
      }

      .cls-6 {
        fill: #303030;
      }

      .cls-7 {
        fill: #231815;
      }

      .cls-8 {
        fill: #fff;
      }

      .cls-3 {
        stroke: #fff;
        stroke-width: 3px;
      }
    </style>
  </defs>
  <g id="content">
    <g>
      <g>
        <g>
          <path class="cls-2" d="M113.31,24.65l-1.8,14.86c-.74,6.19-4.76,8.78-9.36,8.78s-7.83-3.07-7.83-8.09c0-9.04,6.56-16.77,14.75-19.46l.85-7.25h-10.31l.53-4.55h10.31l.85-7.14h4.76l-.85,7.14h9.04l-.53,4.55h-9.1l-.74,6.29c.48-.05.95-.05,1.43-.05,8.25,0,15.44,4.02,15.44,13.17,0,8.3-4.23,14.28-14.7,17.45l-1.53-4.5c7.09-2.59,11.37-6.19,11.37-12.9,0-5.39-3.75-8.46-10.52-8.46-.69,0-1.38.05-2.06.16ZM102.36,43.37c2.12,0,4.18-1.16,4.6-4.97l1.43-12.16c-5.18,2.59-9.1,7.83-9.1,13.28,0,2.64,1.32,3.86,3.07,3.86ZM130.71,16.29c-1.38-3.75-3.65-7.88-5.98-11.16l3.76-2.17c2.54,3.38,4.76,7.4,6.19,11.37l-3.97,1.96Z"/>
          <path class="cls-2" d="M142.34,50.88l2.43-22.42c-1.06,1.06-2.12,2.12-3.23,3.17l-3.07-3.44c5.24-4.6,9.15-9.68,12.75-15.07l3.44,2.91c-1.48,2.17-3.01,4.34-4.71,6.45l-3.07,28.4h-4.55ZM140.59,14.17c4.71-4.28,8.3-8.94,11.48-14.17l3.65,2.7c-3.33,5.34-7.03,10.05-11.95,14.75l-3.17-3.28ZM158.68,42.42c.21,2.54,1.32,4.34,3.38,4.34,2.27,0,3.65-1.59,4.07-5.61l.58-5.82h-7.56c.53,1.59,1,3.17,1.38,4.76l-4.12,1.22c-.42-1.96-1.06-4.02-1.69-5.98h-3.33l.37-3.81h15.39l.37-4.07h-13.96l.37-3.97h22.26l-.37,3.97h-3.81l-.42,4.07h4.65l-.37,3.81h-4.65l-.63,6.35c-.58,5.66-3.38,9.41-8.51,9.41s-7.35-4.12-7.62-8.14l4.23-.53ZM175.23,20.04h-18.99l1.96-18.72h15.18c2.59,0,3.7,1.64,3.44,3.75l-1.59,14.97ZM171.48,15.92l.32-3.44h-10.52l-.37,3.44h10.58ZM172.22,8.73l.37-3.28h-10.58l-.32,3.28h10.53Z"/>
          <path class="cls-2" d="M192.98,18.34h-5.44l.52-4.17h6.09c.52-2.06.98-4.17,1.36-6.42l4.08.75c-.38,1.97-.75,3.84-1.17,5.67h5.53l-.52,4.17h-6.14c-2.44,8.16-6.05,15.14-11.53,22.31l-3.38-2.62c5.06-6.33,8.34-12.47,10.59-19.69ZM208.31,34.09c2.48.89,4.83,2.48,7.17,5.2l-2.2,3.23c-1.73-2.02-3.56-3.38-5.39-4.22l-.28,2.86c-.56,5.48-4.08,8.25-8.81,8.25s-7.17-2.81-7.17-6.98c0-5.2,4.12-9.19,11.2-9.19.52,0,.98,0,1.45.05l1.08-10.88h4.12l-1.17,11.67ZM199.26,45.16c2.06,0,4.03-1.27,4.31-4.41l.33-3.56c-.33-.05-.7-.05-1.08-.05-4.73,0-6.89,2.39-6.89,5.2,0,1.83,1.27,2.81,3.33,2.81ZM206.24,14.17l2.91-2.91c2.72,2.39,5.48,5.39,8.34,9.09l-3,2.81c-2.77-3.56-5.53-6.66-8.25-9Z"/>
          <path class="cls-2" d="M221.12,39.98c4.44-5.34,7.35-10.84,9.84-17.88l4.18,1.75c-2.54,7.25-5.61,13.59-10.21,19.04l-3.81-2.91ZM258.03,17.35h-12.59l-2.38,23.8c-.58,5.92-2.8,8.14-6.61,8.14-3.07,0-5.5-2.01-6.77-6.29l4.44-1.8c.85,2.49,1.38,3.07,2.22,3.07,1.16,0,1.64-.85,1.9-3.33l2.33-23.59h-13.38l.53-4.5h13.27l1-10.1,4.87-.05-1,10.15h12.69l-.53,4.5ZM253.8,43.05c-1.06-6.13-3.01-13.22-5.45-18.3l4.28-2.06c2.49,5.45,4.65,12.96,5.71,18.72l-4.55,1.64ZM253.43,7.09c0-2.49,1.85-4.44,4.34-4.44,2.64,0,4.34,2.01,4.34,4.44s-1.85,4.55-4.34,4.55-4.34-2.01-4.34-4.55ZM259.62,7.09c0-1.22-.74-1.9-1.85-1.9s-1.85.69-1.85,1.9.74,2.01,1.85,2.01,1.85-.74,1.85-2.01Z"/>
          <path class="cls-2" d="M283.73,20.73c-4.44,2.64-9.26,4.87-14.44,6.66l-1.96-5.45c11.79-4.02,22.42-11.16,29.46-19.2l3.7,3.97c-3.12,3.7-6.77,7.09-10.84,10.1l-3.54,31.94h-5.45l3.07-28.03Z"/>
          <path class="cls-2" d="M309.59,48.13l-1.69-5.18c18.35-5.45,24.8-17.45,28.77-31.52l5.08,1.53c-3.7,13.75-10.05,28.56-32.16,35.17ZM324.66,18.35c-3.81-3.23-8.78-6.4-13.38-8.57l2.33-4.23c4.81,2.01,9.68,5.08,13.7,8.36l-2.64,4.44Z"/>
          <path class="cls-2" d="M376.8,33.74c-5.02-3.6-10.47-6.98-15.39-9.47l-2.91,24.38h-5.29l5.24-44.27h5.29l-1.8,15.02c5.82,2.43,11.69,5.76,17.24,9.62l-2.38,4.71Z"/>
          <path class="cls-2" d="M397.73,21.48l-7.73.47.38-3.94,8.53-.52c.84-2.95,1.64-6.05,2.44-9.42l3.75.56c-.7,3.05-1.41,5.91-2.16,8.62,6.28.05,9.09,4.27,9.09,11.53,0,7.92-2.25,20.3-10.17,20.3-2.58,0-4.78-.8-6.19-1.73l1.45-3.66c1.36.61,2.91,1.17,4.36,1.17,5.2,0,6.8-10.97,6.8-15.8,0-5.48-2.06-8.06-5.67-7.88l-.8.05c-3.05,10.31-6.75,18.61-12.28,27.14l-3.23-2.39c5.02-7.64,8.48-15.19,11.44-24.52ZM420.65,35.92l-3.8,1.17c-.7-5.95-1.64-11.39-3.19-15.98l3.94-1.27c1.5,4.83,2.44,10.27,3.05,16.08ZM416.15,16.66l-1.78-6.38,2.62-.75,1.83,6.38-2.67.75ZM419.76,14.92l-1.78-6.38,2.62-.7,1.69,6.33-2.53.75Z"/>
        </g>
        <g>
          <path class="cls-6" d="M113.31,24.65l-1.8,14.86c-.74,6.19-4.76,8.78-9.36,8.78s-7.83-3.07-7.83-8.09c0-9.04,6.56-16.77,14.75-19.46l.85-7.25h-10.31l.53-4.55h10.31l.85-7.14h4.76l-.85,7.14h9.04l-.53,4.55h-9.1l-.74,6.29c.48-.05.95-.05,1.43-.05,8.25,0,15.44,4.02,15.44,13.17,0,8.3-4.23,14.28-14.7,17.45l-1.53-4.5c7.09-2.59,11.37-6.19,11.37-12.9,0-5.39-3.75-8.46-10.52-8.46-.69,0-1.38.05-2.06.16ZM102.36,43.37c2.12,0,4.18-1.16,4.6-4.97l1.43-12.16c-5.18,2.59-9.1,7.83-9.1,13.28,0,2.64,1.32,3.86,3.07,3.86ZM130.71,16.29c-1.38-3.75-3.65-7.88-5.98-11.16l3.76-2.17c2.54,3.38,4.76,7.4,6.19,11.37l-3.97,1.96Z"/>
          <path class="cls-6" d="M142.34,50.88l2.43-22.42c-1.06,1.06-2.12,2.12-3.23,3.17l-3.07-3.44c5.24-4.6,9.15-9.68,12.75-15.07l3.44,2.91c-1.48,2.17-3.01,4.34-4.71,6.45l-3.07,28.4h-4.55ZM140.59,14.17c4.71-4.28,8.3-8.94,11.48-14.17l3.65,2.7c-3.33,5.34-7.03,10.05-11.95,14.75l-3.17-3.28ZM158.68,42.42c.21,2.54,1.32,4.34,3.38,4.34,2.27,0,3.65-1.59,4.07-5.61l.58-5.82h-7.56c.53,1.59,1,3.17,1.38,4.76l-4.12,1.22c-.42-1.96-1.06-4.02-1.69-5.98h-3.33l.37-3.81h15.39l.37-4.07h-13.96l.37-3.97h22.26l-.37,3.97h-3.81l-.42,4.07h4.65l-.37,3.81h-4.65l-.63,6.35c-.58,5.66-3.38,9.41-8.51,9.41s-7.35-4.12-7.62-8.14l4.23-.53ZM175.23,20.04h-18.99l1.96-18.72h15.18c2.59,0,3.7,1.64,3.44,3.75l-1.59,14.97ZM171.48,15.92l.32-3.44h-10.52l-.37,3.44h10.58ZM172.22,8.73l.37-3.28h-10.58l-.32,3.28h10.53Z"/>
          <path class="cls-6" d="M192.98,18.34h-5.44l.52-4.17h6.09c.52-2.06.98-4.17,1.36-6.42l4.08.75c-.38,1.97-.75,3.84-1.17,5.67h5.53l-.52,4.17h-6.14c-2.44,8.16-6.05,15.14-11.53,22.31l-3.38-2.62c5.06-6.33,8.34-12.47,10.59-19.69ZM208.31,34.09c2.48.89,4.83,2.48,7.17,5.2l-2.2,3.23c-1.73-2.02-3.56-3.38-5.39-4.22l-.28,2.86c-.56,5.48-4.08,8.25-8.81,8.25s-7.17-2.81-7.17-6.98c0-5.2,4.12-9.19,11.2-9.19.52,0,.98,0,1.45.05l1.08-10.88h4.12l-1.17,11.67ZM199.26,45.16c2.06,0,4.03-1.27,4.31-4.41l.33-3.56c-.33-.05-.7-.05-1.08-.05-4.73,0-6.89,2.39-6.89,5.2,0,1.83,1.27,2.81,3.33,2.81ZM206.24,14.17l2.91-2.91c2.72,2.39,5.48,5.39,8.34,9.09l-3,2.81c-2.77-3.56-5.53-6.66-8.25-9Z"/>
          <path class="cls-6" d="M221.12,39.98c4.44-5.34,7.35-10.84,9.84-17.88l4.18,1.75c-2.54,7.25-5.61,13.59-10.21,19.04l-3.81-2.91ZM258.03,17.35h-12.59l-2.38,23.8c-.58,5.92-2.8,8.14-6.61,8.14-3.07,0-5.5-2.01-6.77-6.29l4.44-1.8c.85,2.49,1.38,3.07,2.22,3.07,1.16,0,1.64-.85,1.9-3.33l2.33-23.59h-13.38l.53-4.5h13.27l1-10.1,4.87-.05-1,10.15h12.69l-.53,4.5ZM253.8,43.05c-1.06-6.13-3.01-13.22-5.45-18.3l4.28-2.06c2.49,5.45,4.65,12.96,5.71,18.72l-4.55,1.64ZM253.43,7.09c0-2.49,1.85-4.44,4.34-4.44,2.64,0,4.34,2.01,4.34,4.44s-1.85,4.55-4.34,4.55-4.34-2.01-4.34-4.55ZM259.62,7.09c0-1.22-.74-1.9-1.85-1.9s-1.85.69-1.85,1.9.74,2.01,1.85,2.01,1.85-.74,1.85-2.01Z"/>
          <path class="cls-6" d="M283.73,20.73c-4.44,2.64-9.26,4.87-14.44,6.66l-1.96-5.45c11.79-4.02,22.42-11.16,29.46-19.2l3.7,3.97c-3.12,3.7-6.77,7.09-10.84,10.1l-3.54,31.94h-5.45l3.07-28.03Z"/>
          <path class="cls-6" d="M309.59,48.13l-1.69-5.18c18.35-5.45,24.8-17.45,28.77-31.52l5.08,1.53c-3.7,13.75-10.05,28.56-32.16,35.17ZM324.66,18.35c-3.81-3.23-8.78-6.4-13.38-8.57l2.33-4.23c4.81,2.01,9.68,5.08,13.7,8.36l-2.64,4.44Z"/>
          <path class="cls-6" d="M376.8,33.74c-5.02-3.6-10.47-6.98-15.39-9.47l-2.91,24.38h-5.29l5.24-44.27h5.29l-1.8,15.02c5.82,2.43,11.69,5.76,17.24,9.62l-2.38,4.71Z"/>
          <path class="cls-6" d="M397.73,21.48l-7.73.47.38-3.94,8.53-.52c.84-2.95,1.64-6.05,2.44-9.42l3.75.56c-.7,3.05-1.41,5.91-2.16,8.62,6.28.05,9.09,4.27,9.09,11.53,0,7.92-2.25,20.3-10.17,20.3-2.58,0-4.78-.8-6.19-1.73l1.45-3.66c1.36.61,2.91,1.17,4.36,1.17,5.2,0,6.8-10.97,6.8-15.8,0-5.48-2.06-8.06-5.67-7.88l-.8.05c-3.05,10.31-6.75,18.61-12.28,27.14l-3.23-2.39c5.02-7.64,8.48-15.19,11.44-24.52ZM420.65,35.92l-3.8,1.17c-.7-5.95-1.64-11.39-3.19-15.98l3.94-1.27c1.5,4.83,2.44,10.27,3.05,16.08ZM416.15,16.66l-1.78-6.38,2.62-.75,1.83,6.38-2.67.75ZM419.76,14.92l-1.78-6.38,2.62-.7,1.69,6.33-2.53.75Z"/>
        </g>
      </g>
      <circle class="cls-5" cx="236.5" cy="99.16" r="28.5"/>
      <circle class="cls-5" cx="28.5" cy="99.16" r="28.5"/>
      <g>
        <g>
          <g>
            <path class="cls-2" d="M101.99,161.78h1.06l.58-6.08h-11.63l.58-4.71h11.53l.63-6.45h-12.48l.58-4.6h12.32l.69-6.72h4.6l-.69,6.72h11.64l-.58,4.6h-11.48l-.63,6.45h10.37l-.58,4.71h-10.26l-.69,6.82c3.97,1.22,7.46,3.97,11.32,9.15l-3.38,3.38c-2.8-3.97-5.55-6.45-8.41-7.77l-.32,3.44c-.58,6.19-4.39,9.31-9.47,9.31-4.71,0-7.93-3.17-7.93-7.88,0-5.87,4.65-10.37,12.64-10.37ZM97.6,175.21c2.06,0,4.23-1.43,4.6-4.97l.42-4.07h-.63c-5.34,0-7.77,2.7-7.77,5.87,0,2.06,1.43,3.17,3.38,3.17Z"/>
            <path class="cls-2" d="M130.23,164.37c6.72-7.99,14.12-15.87,22.16-23.75h-13.91l.58-4.55h16.55c3.38,0,4.71,3.49,2.59,5.55-4.87,4.5-9.47,9.04-13.8,13.59,3.01-1.43,5.61-2.01,8.09-2.01,6.29,0,10.63,3.54,10.63,10.15,0,9.04-6.29,17.51-17.45,17.51-6.93,0-9.15-3.7-9.15-7.62,0-4.92,3.86-8.46,8.89-8.46,4.12,0,7.51,2.22,10.15,6.45,1.64-2.22,2.49-4.97,2.49-7.67,0-4.02-2.64-5.71-6.72-5.71s-8.73,1.27-13.54,4.5c-1.48,1.64-2.96,3.33-4.39,4.97l-3.17-2.96ZM145.46,176.17c2.8,0,5.13-.74,7.03-1.96-2.12-3.23-3.97-5.02-7.03-5.02-2.54,0-3.97,1.9-3.97,4.02,0,1.59,1.06,2.96,3.97,2.96Z"/>
            <path class="cls-2" d="M176.6,175.74c.37-2.49,2.01-3.97,4.02-3.97s3.28,1.48,2.91,3.97c-.37,2.54-1.96,4.02-3.91,4.02-2.06,0-3.38-1.48-3.01-4.02ZM179.14,167.6l3.49-31.63h6.45l-5.71,31.63h-4.23Z"/>
          </g>
          <g>
            <path class="cls-6" d="M101.99,161.78h1.06l.58-6.08h-11.63l.58-4.71h11.53l.63-6.45h-12.48l.58-4.6h12.32l.69-6.72h4.6l-.69,6.72h11.64l-.58,4.6h-11.48l-.63,6.45h10.37l-.58,4.71h-10.26l-.69,6.82c3.97,1.22,7.46,3.97,11.32,9.15l-3.38,3.38c-2.8-3.97-5.55-6.45-8.41-7.77l-.32,3.44c-.58,6.19-4.39,9.31-9.47,9.31-4.71,0-7.93-3.17-7.93-7.88,0-5.87,4.65-10.37,12.64-10.37ZM97.6,175.21c2.06,0,4.23-1.43,4.6-4.97l.42-4.07h-.63c-5.34,0-7.77,2.7-7.77,5.87,0,2.06,1.43,3.17,3.38,3.17Z"/>
            <path class="cls-6" d="M130.23,164.37c6.72-7.99,14.12-15.87,22.16-23.75h-13.91l.58-4.55h16.55c3.38,0,4.71,3.49,2.59,5.55-4.87,4.5-9.47,9.04-13.8,13.59,3.01-1.43,5.61-2.01,8.09-2.01,6.29,0,10.63,3.54,10.63,10.15,0,9.04-6.29,17.51-17.45,17.51-6.93,0-9.15-3.7-9.15-7.62,0-4.92,3.86-8.46,8.89-8.46,4.12,0,7.51,2.22,10.15,6.45,1.64-2.22,2.49-4.97,2.49-7.67,0-4.02-2.64-5.71-6.72-5.71s-8.73,1.27-13.54,4.5c-1.48,1.64-2.96,3.33-4.39,4.97l-3.17-2.96ZM145.46,176.17c2.8,0,5.13-.74,7.03-1.96-2.12-3.23-3.97-5.02-7.03-5.02-2.54,0-3.97,1.9-3.97,4.02,0,1.59,1.06,2.96,3.97,2.96Z"/>
            <path class="cls-6" d="M176.6,175.74c.37-2.49,2.01-3.97,4.02-3.97s3.28,1.48,2.91,3.97c-.37,2.54-1.96,4.02-3.91,4.02-2.06,0-3.38-1.48-3.01-4.02ZM179.14,167.6l3.49-31.63h6.45l-5.71,31.63h-4.23Z"/>
          </g>
        </g>
        <path class="cls-6" d="M14.45,182.61l-5.95-5.72c2.55-3.19,4.95-6.57,7.2-10.14,2.25-3.57,4.09-6.99,5.53-10.25l6.4,4.37c-1.86,4.23-3.93,8.25-6.23,12.07-2.3,3.81-4.61,7.04-6.95,9.67ZM15.01,154.94l5.31-63.45h27.14l-5.31,63.45h-18.79l.78-9.36h10.61l.78-9.36h-10.61l.7-8.32h10.61l.78-9.36h-10.61l.7-8.32h10.61l.78-9.36h-10.61l-4.53,54.09h-8.35ZM38.3,181.99c-1.22-3.4-2.63-6.83-4.23-10.3-1.6-3.47-3.3-6.76-5.1-9.88l6.84-4.89c1.9,3.19,3.67,6.57,5.29,10.14,1.62,3.57,2.99,6.99,4.11,10.25l-6.91,4.68ZM63.31,181.47c-.84,0-2.28-.05-4.33-.16-2.05-.1-4.71-.23-7.99-.36l.48-9.67c2.88.14,5.27.28,7.15.42,1.88.14,3.21.21,3.99.21.83,0,1.44-.09,1.82-.26.38-.17.62-.64.74-1.4.12-.76.25-2.04.41-3.85l2.64-31.52h-21.21l.8-9.57h44.01l-.8,9.57h-13.78l-2.64,31.52c-.29,3.47-.63,6.22-1.03,8.27-.39,2.04-.95,3.55-1.67,4.53-.72.97-1.76,1.59-3.12,1.87-1.36.28-3.18.42-5.46.42ZM48.74,121.14l1.85-22.05h16.28l.94-11.23h9.19l-.94,11.23h17.37l-1.85,22.05h-8.85l1.09-13h-25.39l-1.09,13h-8.6Z"/>
      </g>
      <g>
        <path class="cls-6" d="M216.48,182.72l-2.38-8.53c5.65-1.66,10.96-3.57,15.93-5.72,4.97-2.15,9.07-4.3,12.31-6.45l2.7,7.7c-2.13,1.53-4.7,3.09-7.7,4.68-3,1.59-6.29,3.1-9.86,4.53-3.57,1.42-7.24,2.69-11.01,3.8ZM228.27,123.74l1.65-19.76h-10.69l.76-9.05h10.69l.55-6.55h8.94l-.55,6.55h10.86l.55-6.55h8.6l-1.48,17.68h16.7l.3-3.64h-16.7l.63-7.49h16.7l.55-6.55h8.68l-.55,6.55h12.36l-.76,9.05h-12.36l-.72,8.63h-33.99l.72-8.63h-10.86l-1,11.96h54.53l-.65,7.8h-63.46ZM222.4,165.87l3.24-38.69h60.12l-3.24,38.69h-50.77l.65-7.8h41.42l.29-3.43h-41.42l.54-6.45h41.42l.28-3.33h-41.42l.55-6.55h41.42l.29-3.43h-41.42l-2.6,31h-9.35ZM284.81,183.45c-3.27-2.22-7.1-4.44-11.51-6.66-4.41-2.22-9.09-4.3-14.05-6.24l3.41-7.8c5.19,1.87,10.08,3.88,14.69,6.03,4.61,2.15,8.63,4.33,12.06,6.55l-4.6,8.11Z"/>
        <g>
          <g>
            <path class="cls-2" d="M316.91,151.26h-17.45l.53-4.76h19.46c3.44,0,4.92,3.17,2.17,6.61l-7.46,9.2c1.75-1.06,3.7-1.8,5.66-1.8,1.53,0,2.59,1,2.49,4.34-.05,1.22-.16,3.01-.16,4.76-.05,4.18.95,5.61,4.18,5.61,1.11,0,2.38-.16,3.81-.48l.9,4.65c-1.59.48-3.81.9-6.03.79-3.81-.16-7.83-2.33-7.62-9.41.05-1.38.16-2.7.21-3.97,0-1.16-.53-1.69-1.32-1.69-1.96,0-4.34,1.06-7.14,3.38l-9.47,11.63-3.86-2.96,21.1-25.91ZM325.32,140.47h-19.57l.53-4.65h19.57l-.53,4.65Z"/>
            <path class="cls-2" d="M340.23,164.37c6.72-7.99,14.12-15.87,22.16-23.75h-13.91l.58-4.55h16.55c3.38,0,4.71,3.49,2.59,5.55-4.87,4.5-9.47,9.04-13.8,13.59,3.01-1.43,5.61-2.01,8.09-2.01,6.29,0,10.63,3.54,10.63,10.15,0,9.04-6.29,17.51-17.45,17.51-6.93,0-9.15-3.7-9.15-7.62,0-4.92,3.86-8.46,8.89-8.46,4.12,0,7.51,2.22,10.15,6.45,1.64-2.22,2.49-4.97,2.49-7.67,0-4.02-2.64-5.71-6.72-5.71s-8.73,1.27-13.54,4.5c-1.48,1.64-2.96,3.33-4.39,4.97l-3.17-2.96ZM355.46,176.17c2.8,0,5.13-.74,7.03-1.96-2.12-3.23-3.97-5.02-7.03-5.02-2.54,0-3.97,1.9-3.97,4.02,0,1.59,1.06,2.96,3.97,2.96Z"/>
            <path class="cls-2" d="M386.6,175.74c.37-2.49,2.01-3.97,4.02-3.97s3.28,1.48,2.91,3.97c-.37,2.54-1.96,4.02-3.91,4.02-2.06,0-3.38-1.48-3.01-4.02ZM389.14,167.6l3.49-31.63h6.45l-5.71,31.63h-4.23Z"/>
          </g>
          <g>
            <path class="cls-6" d="M316.91,151.26h-17.45l.53-4.76h19.46c3.44,0,4.92,3.17,2.17,6.61l-7.46,9.2c1.75-1.06,3.7-1.8,5.66-1.8,1.53,0,2.59,1,2.49,4.34-.05,1.22-.16,3.01-.16,4.76-.05,4.18.95,5.61,4.18,5.61,1.11,0,2.38-.16,3.81-.48l.9,4.65c-1.59.48-3.81.9-6.03.79-3.81-.16-7.83-2.33-7.62-9.41.05-1.38.16-2.7.21-3.97,0-1.16-.53-1.69-1.32-1.69-1.96,0-4.34,1.06-7.14,3.38l-9.47,11.63-3.86-2.96,21.1-25.91ZM325.32,140.47h-19.57l.53-4.65h19.57l-.53,4.65Z"/>
            <path class="cls-6" d="M340.23,164.37c6.72-7.99,14.12-15.87,22.16-23.75h-13.91l.58-4.55h16.55c3.38,0,4.71,3.49,2.59,5.55-4.87,4.5-9.47,9.04-13.8,13.59,3.01-1.43,5.61-2.01,8.09-2.01,6.29,0,10.63,3.54,10.63,10.15,0,9.04-6.29,17.51-17.45,17.51-6.93,0-9.15-3.7-9.15-7.62,0-4.92,3.86-8.46,8.89-8.46,4.12,0,7.51,2.22,10.15,6.45,1.64-2.22,2.49-4.97,2.49-7.67,0-4.02-2.64-5.71-6.72-5.71s-8.73,1.27-13.54,4.5c-1.48,1.64-2.96,3.33-4.39,4.97l-3.17-2.96ZM355.46,176.17c2.8,0,5.13-.74,7.03-1.96-2.12-3.23-3.97-5.02-7.03-5.02-2.54,0-3.97,1.9-3.97,4.02,0,1.59,1.06,2.96,3.97,2.96Z"/>
            <path class="cls-6" d="M386.6,175.74c.37-2.49,2.01-3.97,4.02-3.97s3.28,1.48,2.91,3.97c-.37,2.54-1.96,4.02-3.91,4.02-2.06,0-3.38-1.48-3.01-4.02ZM389.14,167.6l3.49-31.63h6.45l-5.71,31.63h-4.23Z"/>
          </g>
        </g>
      </g>
      <g>
        <path class="cls-5" d="M310.38,80.87c-.97-.61-1.92-.57-2.82.06-1.55,1.08-3.09,2.18-4.58,3.34-.77.61-1.62,1.3-1.12,2.52.51,1.24,1.71.76,2.62,1.03.58.05,1.1-.1,1.58-.41,1.5-.96,3.06-1.85,4.5-2.89,1.71-1.22,1.59-2.55-.18-3.65Z"/>
        <path class="cls-5" d="M317.51,91.23c-.64-.71-1.44-1.02-2.42-1.05-.28.07-.64.08-.92.23-1.56.85-3.12,1.72-4.65,2.62-.27.16-.49.47-.65.75-.23.41-.25.85.14,1.2.16.15.35.28.55.37,1.02.48,2.11,1.01,3.2.52,1.6-.73,3.52-.79,4.8-2.2.63-.68.58-1.76-.04-2.45Z"/>
        <path class="cls-5" d="M297.19,75.58c-1.36-.17-2.52.25-3.09,1.41-.61,1.26-.92,2.68-1.28,4.05-.2.75.29,1.52,1.02,1.84.97.44,2.36.1,2.91-.76.77-1.2,1.52-2.42,2.21-3.67.2-.35.17-.83.22-1.13-.51-.92-.95-1.62-2-1.74Z"/>
      </g>
      <g>
        <path class="cls-5" d="M107.38,80.87c-.97-.61-1.92-.57-2.82.06-1.55,1.08-3.09,2.18-4.58,3.34-.77.61-1.62,1.3-1.12,2.52.51,1.24,1.71.76,2.62,1.03.58.05,1.1-.1,1.58-.41,1.5-.96,3.06-1.85,4.5-2.89,1.71-1.22,1.59-2.55-.18-3.65Z"/>
        <path class="cls-5" d="M114.51,91.23c-.64-.71-1.44-1.02-2.42-1.05-.28.07-.64.08-.92.23-1.56.85-3.12,1.72-4.65,2.62-.27.16-.49.47-.65.75-.23.41-.25.85.14,1.2.16.15.35.28.55.37,1.02.48,2.11,1.01,3.2.52,1.6-.73,3.52-.79,4.8-2.2.63-.68.58-1.76-.04-2.45Z"/>
        <path class="cls-5" d="M94.19,75.58c-1.36-.17-2.52.25-3.09,1.41-.61,1.26-.92,2.68-1.28,4.05-.2.75.29,1.52,1.02,1.84.97.44,2.36.1,2.91-.76.77-1.2,1.52-2.42,2.21-3.67.2-.35.17-.83.22-1.13-.51-.92-.95-1.62-2-1.74Z"/>
      </g>
      <g>
        <path class="cls-4" d="M434.62,146.08l-1.94-2.13c1.77-.13,3.51-.82,4.94-2.09l-1.48,6.6c-.36-.85-.86-1.66-1.52-2.38Z"/>
        <path class="cls-4" d="M439.76,132.33c-.36-.85-.86-1.66-1.52-2.38l-1.94-2.13c1.77-.13,3.51-.82,4.94-2.09l-1.48,6.6Z"/>
        <path class="cls-4" d="M427.37,160.05c2.35.3,4.82-.39,6.7-2.11.05-.05.09-.1.14-.15.13.54.55,1,1.13,1.13l43.32,9.72c-.92,1.93-1.73,4.1-2.37,6.54l-44.61-10.01c-2.48-.56-4.18-2.7-4.31-5.12Z"/>
        <path class="cls-8" d="M486.35,158.47c-2.09,1.79-4.29,4.2-6.2,7.39l-42.65-9.57,18.03-80.33,46.98,10.54-16.15,71.97Z"/>
        <path class="cls-4" d="M497.49,131.56l1.62,12.53-1.94,8.65c-1.4.35-4.06,1.2-7.09,3.03l15.73-70.1c.18-.82-.33-1.63-1.15-1.82l-49.94-11.21c-.82-.18-1.63.33-1.82,1.15l-9.52,42.4c-.36-.85-.86-1.66-1.52-2.38l-3.02-3.32h0s-.48-.52-.48-.52l9.93-44.26c.67-2.99,3.66-4.88,6.65-4.21l54.26,12.18c2.99.67,4.88,3.65,4.21,6.65l-9.42,41.96c-4.19.93-7.07,4.93-6.51,9.26Z"/>
        <path class="cls-1" d="M440.38,94.05l-7.88-8.64c-2.55-2.79-6.91-3-9.71-.45h0c-2.79,2.55-3,6.92-.45,9.71l15.37,16.86"/>
        <path class="cls-1" d="M430.58,124.1c2.55,2.79,6.92,3,9.71.45h0c2.79-2.55,3-6.91.45-9.71l-5.48-6.01c-2.55-2.79-6.91-3-9.71-.45h0c-2.79,2.55-3,6.92-.45,9.71l5.48,6.01Z"/>
        <path class="cls-1" d="M426.96,140.23c2.55,2.79,6.92,3,9.71.45h0c2.79-2.55,3-6.92.45-9.71l-5.48-6.01c-2.55-2.79-6.91-3-9.71-.45h0c-2.79,2.55-3,6.92-.45,9.71l5.48,6.01Z"/>
        <path class="cls-1" d="M423.34,156.36c2.55,2.79,6.92,3,9.71.45h0c2.79-2.55,3-6.92.45-9.71l-5.48-6.01c-2.55-2.79-6.91-3-9.71-.45h0c-2.79,2.55-3,6.92-.45,9.71l5.48,6.01Z"/>
        <g>
          <path class="cls-1" d="M436.71,110.42l10.11-45.03c.86-3.82,4.65-6.22,8.47-5.36l54.26,12.18c3.82.86,6.22,4.65,5.36,8.47l-9.63,42.89"/>
          <path class="cls-1" d="M477.41,176.99l-46.06-10.34c-3.82-.86-6.22-4.65-5.36-8.47"/>
          <polyline class="cls-1" points="480.89 167.58 435.68 157.44 454.38 74.14 504.32 85.35 487.72 159.29"/>
          <line class="cls-3" x1="476.67" y1="71.88" x2="485.13" y2="73.78"/>
        </g>
        <path class="cls-1" d="M507.24,184.01l7.25-32.32c.41-1.84.5-3.74.26-5.62l-2.12-16.47c-.48-3.75-3.95-6.42-7.69-5.94h0c-3.75.48-6.42,3.95-5.94,7.69l1.65,12.8-2.21,9.86s-16.45,2.57-21.02,22.96"/>
        <g>
          <circle class="cls-7" cx="470" cy="121.39" r="17.24"/>
          <path class="cls-3" d="M465.49,122.89l6.18,1.39c3.11.7,6.23-1.28,6.92-4.39h0c.7-3.11-1.28-6.23-4.39-6.92l-6.18-1.39-4.47,19.93"/>
        </g>
      </g>
    </g>
  </g>
</svg>