<?xml version="1.0" encoding="UTF-8"?>
<svg id="Layer_2" data-name="Layer 2" xmlns="http://www.w3.org/2000/svg" viewBox="0 0 457 74">
  <defs>
    <style>
      .cls-1 {
        fill: #ff6f0d;
      }

      .cls-2 {
        fill: #fff;
      }
    </style>
  </defs>
  <g id="content">
    <g>
      <g>
        <polygon class="cls-1" points="228.5 74 247.9 57 209.1 57 228.5 74"/>
        <rect class="cls-1" x="0" y="0" width="457" height="60" rx="30" ry="30"/>
      </g>
      <g>
        <path class="cls-2" d="M35.93,23.81c-.65,1.38-1.43,2.78-2.32,4.1v14.41h-3.02v-10.61c-.73.78-1.48,1.48-2.24,2.08-.32-.67-1.24-2.29-1.84-3.02,2.56-1.84,5.02-4.86,6.42-7.99l3,1.03ZM31.13,24.38h-3.13v-5.16h9.83v-2.08h3.29v2.08h9.93v4.78h-3.29v-1.89h-16.63v2.27ZM45.03,27.35l-.73,2h5.97v13.01h-3.19v-.92h-7.4v.94h-3.05v-13.04h4.37c.14-.65.3-1.32.43-2h-5.75v-2.81h15.55v2.81h-6.21ZM47.08,32.05h-7.4v1.94h7.4v-1.94ZM47.08,38.71v-2.13h-7.4v2.13h7.4Z"/>
        <path class="cls-2" d="M58.83,30.16c-1.03-.94-3.13-2.19-4.83-2.94l1.75-2.35c1.62.65,3.81,1.75,4.89,2.67l-1.81,2.62ZM55,39.85c1.24-2.05,3.02-5.4,4.4-8.5l2.46,1.97c-1.19,2.83-2.67,5.91-4.08,8.5l-2.78-1.97ZM57.4,17.47c1.65.65,3.83,1.84,4.89,2.81l-1.92,2.54c-1-.97-3.08-2.27-4.78-3.02l1.81-2.32ZM77.78,21.87v20.24h-3.29v-1.05h-8.45v1.27h-3.16v-20.46h4.53c.35-1.51.67-3.29.78-4.67l3.78.38c-.38,1.48-.84,2.97-1.27,4.29h7.07ZM66.04,24.95v4.89h8.45v-4.89h-8.45ZM74.49,37.96v-5.16h-8.45v5.16h8.45Z"/>
        <path class="cls-2" d="M92.71,37.93c1.03-.14,1.78-.27,2.48-.43,3.43-.81,6.07-3.27,6.07-7.15s-2-6.45-5.59-7.07c-.38,2.27-.84,4.75-1.59,7.26-1.59,5.4-3.91,8.69-6.83,8.69s-5.45-3.27-5.45-7.77c0-6.15,5.37-11.44,12.31-11.44s10.8,4.62,10.8,10.45-3.46,9.61-10.2,10.64l-2-3.16ZM90.63,29.83c.62-1.97,1.11-4.26,1.43-6.48-4.43.92-6.78,4.8-6.78,7.75,0,2.7,1.08,4.02,2.08,4.02,1.11,0,2.19-1.67,3.27-5.29Z"/>
        <path class="cls-2" d="M114.61,32.02c-.24.97-.43,1.81-.43,2.7,0,1.7,1.59,2.94,5.45,2.94,3.62,0,7.02-.4,9.39-1.05l.03,3.78c-2.32.54-5.53.89-9.29.89-6.13,0-9.18-2.05-9.18-5.72,0-1.54.3-2.83.51-3.86l3.51.32ZM128.16,17.85c.68,1,1.65,2.7,2.16,3.7l-2.19.94c-.22-.43-.49-.94-.76-1.48v3.21c-1.86.13-5.18.32-7.72.32-2.81,0-5.13-.13-7.29-.3v-3.56c1.97.22,4.45.32,7.26.32,2.56,0,5.51-.16,7.56-.35-.38-.7-.78-1.4-1.16-1.94l2.13-.86ZM131.35,16.63c.73,1,1.73,2.73,2.19,3.67l-2.13.92c-.57-1.13-1.43-2.7-2.19-3.73l2.13-.86Z"/>
        <path class="cls-2" d="M159.99,28.3c-1.21,2.54-2.81,5.24-4.32,7.05l-2.75-1.59c.65-.89,1.43-2.11,2.11-3.32h-5.7v8.39c0,1.7-.38,2.51-1.67,2.97-1.24.46-3,.49-5.32.49-.16-.92-.67-2.24-1.16-3.08,1.59.05,3.59.05,4.13.05.51-.03.67-.13.67-.54v-8.29h-10.66v-3.05h12.28c-2-.84-4.18-1.7-5.91-2.35l1.59-2.43c1.21.43,2.73.94,4.24,1.51,1.16-.73,2.38-1.62,3.43-2.54h-13.04v-2.94h16.14l.73-.19,2.29,1.81c-1.73,1.73-3.97,3.59-6.23,5.13.89.35,1.7.65,2.32.94l-.65,1.05h4.26l.59-.22,2.62,1.13Z"/>
        <path class="cls-2" d="M165.56,33.37c-.27,2.54-.84,5.24-1.62,6.96-.57-.35-1.75-.92-2.46-1.16.78-1.59,1.21-4,1.43-6.26l2.65.46ZM186.56,21.68s0,1.08-.03,1.48c-.35,11.82-.73,16.09-1.86,17.52-.76,1.03-1.46,1.32-2.59,1.48-.97.16-2.65.13-4.21.08-.05-.92-.49-2.32-1.08-3.24,1.7.16,3.24.16,3.97.16.51,0,.81-.11,1.13-.46.81-.84,1.21-4.78,1.51-13.98h-7.45c-.73,1.32-1.48,2.51-2.29,3.48-.54-.49-1.73-1.3-2.54-1.78.94,1.7,1.81,3.7,2.11,5.05l-2.43,1.13c-.08-.43-.22-.92-.38-1.46l-1.54.11v11.09h-2.83v-10.88l-4,.27-.27-2.81,2-.08c.4-.51.84-1.08,1.24-1.67-.78-1.16-2.11-2.62-3.24-3.7l1.51-2.21c.22.19.43.38.65.57.76-1.48,1.54-3.29,1.97-4.7l2.83,1c-.97,1.86-2.08,3.94-3.05,5.45.35.38.67.78.94,1.13.97-1.51,1.84-3.08,2.48-4.43l2.73,1.13c-1.51,2.38-3.4,5.13-5.16,7.31l2.73-.11c-.3-.65-.62-1.3-.94-1.86l2.27-1,.19.32c2-2.13,3.59-5.59,4.45-8.99l3.29.7c-.35,1.32-.81,2.62-1.32,3.86h9.2ZM171.31,32.75c.73,1.59,1.43,3.7,1.75,5.07l-2.54.89c-.22-1.38-.92-3.56-1.59-5.21l2.38-.76ZM177.63,35.5c-.51-1.7-1.92-4.29-3.29-6.24l2.56-1.3c1.4,1.86,2.94,4.35,3.51,6.05l-2.78,1.48Z"/>
        <path class="cls-2" d="M195.72,19.23c-.22.54-.54,1.89-.65,2.38-.41,1.78-1.27,7.67-1.27,10.34,0,.54.03,1.19.11,1.73.35-.94.78-1.84,1.19-2.73l1.65,1.32c-.76,2.19-1.62,4.91-1.92,6.37-.08.38-.16.94-.13,1.24,0,.27,0,.73.03,1.11l-3.02.22c-.54-1.86-1.05-4.91-1.05-8.53,0-4.05.78-9.1,1.11-11.15.11-.76.24-1.78.24-2.62l3.72.32ZM212.13,39.39c-1.11-1.05-2.19-1.94-3.24-2.67-.16,2.54-1.62,4.37-5.24,4.37s-5.99-1.57-5.99-4.37,2.29-4.59,5.94-4.59c.62,0,1.21.03,1.75.11-.08-1.65-.16-3.59-.19-5.48-.65.03-1.3.03-1.92.03-1.57,0-3.08-.05-4.67-.16v-3.19c1.54.16,3.08.24,4.67.24.62,0,1.27,0,1.89-.03-.03-1.32-.03-2.4-.05-2.97,0-.4-.08-1.21-.16-1.75h3.83c-.08.51-.13,1.16-.16,1.73-.03.59-.08,1.59-.08,2.78,1.46-.16,2.86-.35,4.13-.62v3.32c-1.3.19-2.7.35-4.16.46.05,2.59.19,4.72.3,6.53,2.24.92,3.91,2.29,5.16,3.46l-1.81,2.81ZM205.49,35.04c-.7-.19-1.43-.3-2.16-.3-1.51,0-2.54.62-2.54,1.62,0,1.08,1.08,1.57,2.48,1.57,1.65,0,2.21-.86,2.21-2.43v-.46Z"/>
        <path class="cls-2" d="M226.66,18.77c-1.73,4.24-4.56,8.42-7.32,10.99-.65-.67-2.21-1.89-3.08-2.4,2.78-2.19,5.32-5.88,6.72-9.64l3.67,1.05ZM234.16,31.4c2.35,2.92,4.89,6.72,6.21,9.31l-3.35,1.75c-.27-.65-.65-1.38-1.11-2.16-6.48.43-13.28.84-18.03,1.05l-.43-3.37,3.75-.13c1.73-3.21,3.59-7.53,4.62-10.91l3.86.89c-1.4,3.32-3.16,6.94-4.8,9.85,2.92-.13,6.07-.3,9.2-.46-.97-1.51-2.05-3.05-3.05-4.37l3.13-1.46ZM233.79,17.77c1.57,3.16,4.64,6.94,7.1,9.2-.84.67-2.08,1.92-2.7,2.81-2.54-2.73-5.64-6.99-7.61-10.69l3.21-1.32Z"/>
        <path class="cls-2" d="M260.27,24.84c.57,7.88,2.21,14.12,4.18,14.12.57,0,.89-1.43,1.03-4.86.73.76,1.92,1.57,2.81,1.89-.49,5.1-1.57,6.34-4.13,6.34-4.62,0-6.64-7.99-7.29-17.49h-13.42v-3.13h13.25c-.05-1.46-.08-2.97-.08-4.45h3.46c-.03,1.48-.03,3,.03,4.45h4.26c-.73-.92-2.08-2.02-3.16-2.83l2.13-1.75c1.21.84,2.81,2.11,3.54,3l-1.84,1.59h2.54v3.13h-7.32ZM251.74,36.96c1.65-.3,3.37-.62,5.02-.94l.24,2.86c-4.43.97-9.18,1.97-12.66,2.7l-.89-3.24c1.38-.22,3.16-.49,5.1-.81v-6.5h-4.08v-3.1h11.58v3.1h-4.32v5.94Z"/>
        <path class="cls-2" d="M294.78,21.71c-.3.35-.81,1-1.05,1.4-1.27,2.11-3.83,5.51-6.51,7.4l-2.78-2.24c2.16-1.32,4.26-3.7,4.97-5.02h-14.06c-1.13,0-2.02.08-3.29.19v-3.75c1.03.16,2.16.27,3.29.27h14.55c.76,0,2.24-.08,2.73-.24l2.16,2ZM283.76,25.35c0,6.69-.14,12.2-7.5,16.14l-3.13-2.56c.86-.3,1.84-.76,2.83-1.48,3.43-2.38,4.08-5.24,4.08-9.66,0-.84-.05-1.57-.19-2.43h3.91Z"/>
        <path class="cls-2" d="M314.52,20.82c.38,0,.94-.03,1.54-.11-.03-.16-.05-.32-.05-.51,0-1.78,1.46-3.24,3.24-3.24s3.21,1.46,3.21,3.24-1.46,3.21-3.21,3.21c-.11,0-.24,0-.35-.03l-.22.81c-.62,2.65-1.78,6.83-4.05,9.83-2.43,3.24-6.02,5.91-10.85,7.45l-2.94-3.21c5.37-1.27,8.4-3.59,10.58-6.34,1.78-2.24,2.81-5.29,3.19-7.61h-12.58c-1.24,0-2.51.05-3.21.11v-3.81c.78.11,2.32.22,3.21.22h12.5ZM320.78,20.2c0-.86-.7-1.57-1.54-1.57s-1.57.7-1.57,1.57.7,1.54,1.57,1.54,1.54-.7,1.54-1.54Z"/>
        <path class="cls-2" d="M332.23,19.28c-.05.59-.08,1.19-.08,2.05v9.12c0,.67.03,1.73.08,2.35h-3.99c.03-.51.13-1.57.13-2.38v-9.1c0-.51-.03-1.46-.11-2.05h3.97ZM344.67,19.04c-.05.76-.11,1.62-.11,2.7v5.34c0,5.8-1.13,8.29-3.13,10.5-1.78,1.97-4.59,3.29-6.56,3.91l-2.83-2.97c2.7-.62,4.97-1.65,6.61-3.4,1.84-2.02,2.19-4.05,2.19-8.26v-5.13c0-1.08-.05-1.94-.16-2.7h4Z"/>
        <path class="cls-2" d="M362.47,18.74c-.16.7-.35,1.54-.49,2.21-.14.81-.35,1.78-.54,2.75.89-.05,1.7-.11,2.24-.11,2.83,0,4.83,1.27,4.83,5.1,0,3.16-.38,7.42-1.51,9.74-.89,1.86-2.38,2.46-4.4,2.46-1.03,0-2.29-.16-3.19-.38l-.59-3.54c1.03.3,2.56.57,3.27.57.89,0,1.59-.27,2-1.16.76-1.48,1.11-4.67,1.11-7.31,0-2.13-.92-2.43-2.62-2.43-.43,0-1.08.05-1.84.11-1.03,4.05-2.97,10.34-5.43,14.28l-3.51-1.4c2.62-3.51,4.43-8.85,5.4-12.5-.94.11-1.78.22-2.29.3-.76.08-2.13.27-2.97.4l-.3-3.62c.97.08,1.86.03,2.83,0,.84-.03,2.11-.11,3.46-.22.38-2.05.59-4,.57-5.67l3.97.4ZM371.7,21.25c1.62,2.29,3.86,7.4,4.67,9.93l-3.37,1.59c-.7-2.97-2.62-7.8-4.54-10.18l3.24-1.35Z"/>
        <path class="cls-2" d="M385.23,29.94c2.43-1.75,5.07-2.54,7.85-2.54,4.7,0,7.42,2.89,7.42,6.13,0,4.89-3.86,8.64-14.98,7.67l-1.03-3.51c8.02,1.13,12.25-.84,12.25-4.24,0-1.73-1.65-3-4-3-3.02,0-5.7,1.11-7.37,3.13-.49.59-.78,1.03-1,1.57l-3.1-.78c.51-2.62,1.16-7.83,1.32-11.15l3.62.49c-.35,1.48-.81,4.7-1,6.24ZM386.07,18.34c2.54.78,8.34,1.81,10.69,2.08l-.81,3.29c-2.7-.35-8.66-1.59-10.74-2.13l.86-3.24Z"/>
        <path class="cls-2" d="M414.69,37.58c0-1.54,1.21-2.67,2.81-2.67s2.81,1.13,2.81,2.67-1.21,2.65-2.81,2.65-2.81-1.08-2.81-2.65ZM415.15,23.81l-.11-4.02h4.94l-.13,4.02-.94,9.23h-2.78l-.97-9.23Z"/>
      </g>
    </g>
  </g>
</svg>