<?xml version="1.0" encoding="UTF-8"?>
<svg id="_レイヤー_2" data-name="レイヤー 2" xmlns="http://www.w3.org/2000/svg" viewBox="0 0 35 167">
  <defs>
    <style>
      .cls-1 {
        fill: none;
        stroke: #fffcf8;
        stroke-linecap: round;
        stroke-linejoin: round;
      }

      .cls-2 {
        fill: #fff;
      }
    </style>
  </defs>
  <g id="main">
    <g>
      <polyline class="cls-1" points=".5 .5 .5 166.5 26.4 147.2"/>
      <g>
        <path class="cls-2" d="M17,6.5c0,1.1.2,1.9.6,2.4.4.5.9.7,1.6.7s.7,0,1-.3.5-.4.8-.7c.2-.3.4-.7.6-1.1.2-.4.4-1,.6-1.5.2-.6.4-1.1.7-1.7.2-.5.6-1,.9-1.4.4-.4.8-.7,1.3-1,.5-.2,1.1-.4,1.8-.4,1.5,0,2.7.5,3.5,1.6.9,1,1.3,2.5,1.3,4.2s-.1,2-.3,2.8c-.2.8-.5,1.4-.8,1.9l-2.4-.9c.3-.5.5-1.1.7-1.8.2-.6.2-1.3.2-2s-.2-1.5-.5-1.9c-.3-.5-.8-.7-1.4-.7s-.7,0-.9.2c-.3.2-.5.4-.7.6-.2.3-.4.6-.6,1-.2.4-.3.8-.5,1.2-.3.8-.6,1.5-.9,2.1-.3.6-.6,1.1-1.1,1.6-.4.4-.9.7-1.4,1-.6.2-1.2.3-2,.3-1.5,0-2.7-.5-3.5-1.6-.8-1.1-1.2-2.6-1.2-4.7s0-1.3.1-1.9c0-.6.2-1.1.3-1.5.1-.4.3-.8.4-1.1.1-.3.3-.6.4-.8l2.5.9c-.2.4-.5,1-.7,1.8-.2.7-.4,1.6-.4,2.7Z"/>
        <path class="cls-2" d="M14.3,26.2c0-1.2.2-2.4.6-3.4.4-1,.9-1.8,1.7-2.5.7-.7,1.7-1.2,2.7-1.6,1.1-.4,2.3-.6,3.7-.6s2.6.2,3.7.6c1.1.4,2,1,2.7,1.7.7.7,1.3,1.6,1.7,2.6.4,1,.6,2.1.6,3.2s0,1.3-.2,1.9-.2,1-.3,1.5c-.1.4-.3.8-.4,1-.1.3-.2.5-.3.6l-2.5-.9c.2-.4.5-.9.7-1.6.2-.7.3-1.5.3-2.3s-.1-1.4-.4-2c-.2-.6-.6-1.2-1.1-1.6s-1.1-.8-1.9-1.1c-.8-.3-1.6-.4-2.6-.4s-1.7,0-2.4.3c-.7.2-1.4.5-1.9.9-.5.4-1,.9-1.2,1.6-.3.6-.4,1.4-.4,2.3s.1,1.9.3,2.6c.2.7.4,1.2.6,1.6l-2.5.8c-.1-.2-.3-.5-.4-.8-.1-.3-.3-.7-.4-1.2-.1-.4-.2-1-.3-1.5,0-.6-.1-1.2-.1-1.8Z"/>
        <path class="cls-2" d="M31.5,42.1c0,2.4-.4,4.2-1.3,5.5s-2.2,1.9-4,1.9-3.8-1.1-4.6-3.3c-.4.3-.8.6-1.3,1s-1.1.8-1.7,1.2c-.6.4-1.2.8-1.9,1.2-.6.4-1.3.7-1.9,1v-3.4c.6-.3,1.2-.6,1.7-1,.6-.4,1.2-.7,1.7-1.1.6-.4,1.1-.7,1.6-1.1.5-.4.9-.7,1.3-1,0-.2,0-.4,0-.6v-1.9h-6.3v-3h16.4c.2.7.3,1.5.3,2.4,0,.8,0,1.6,0,2.2ZM28.9,42.3c0-.6,0-1.2,0-1.8h-5.4v1.3c0,.7,0,1.4.1,1.9,0,.6.2,1,.4,1.4.2.4.5.7.8.9.4.2.8.3,1.3.3s.9,0,1.3-.3c.4-.2.6-.5.8-.8s.4-.8.4-1.3c0-.5.1-1,.1-1.6Z"/>
        <path class="cls-2" d="M23,71.7c-1.4,0-2.7-.2-3.8-.6-1.1-.4-2-1-2.7-1.7-.7-.7-1.3-1.6-1.6-2.6-.4-1-.6-2-.6-3.1s.2-2.1.6-3.1c.4-1,.9-1.8,1.6-2.6.7-.7,1.6-1.3,2.7-1.7,1.1-.4,2.3-.6,3.8-.6s2.7.2,3.8.6c1.1.4,2,1,2.7,1.8.7.7,1.3,1.6,1.7,2.6.4,1,.6,2,.6,3.1s-.2,2.1-.6,3.1c-.4,1-.9,1.8-1.7,2.6-.7.7-1.6,1.3-2.7,1.7-1.1.4-2.3.6-3.8.6ZM23,58.7c-.9,0-1.7.1-2.5.3-.7.2-1.4.5-1.9,1-.5.4-.9.9-1.2,1.5-.3.6-.4,1.3-.4,2.1s.1,1.4.4,2c.3.6.7,1.1,1.2,1.5.5.4,1.2.7,1.9,1,.7.2,1.6.3,2.5.3s1.7-.1,2.5-.3c.7-.2,1.4-.5,1.9-1,.5-.4.9-.9,1.2-1.5.3-.6.4-1.3.4-2s-.1-1.5-.4-2.1c-.3-.6-.7-1.1-1.2-1.5-.5-.4-1.2-.7-1.9-1-.7-.2-1.6-.3-2.5-.3Z"/>
        <path class="cls-2" d="M17.3,88.8h-2.6v-10.5h16.6v3h-14v7.5Z"/>
        <path class="cls-2" d="M17.3,105h-2.6v-10.5h16.6v3h-14v7.5Z"/>
      </g>
    </g>
  </g>
</svg>